<svg xmlns="http://www.w3.org/2000/svg" width="128" height="128" viewBox="0 0 128 128">
  <g id="Control" transform="translate(-0.023 0.031)">
    <rect id="Container" width="128" height="128" transform="translate(0.023 -0.031)" fill="none"/>
    <g id="Group_579" data-name="Group 579" transform="translate(13.83 28.198)">
      <g id="Group_578" data-name="Group 578">
        <path id="Path_1334" data-name="Path 1334" d="M66.929,140.673a14.243,14.243,0,0,1-6.01-2.054A15.668,15.668,0,0,1,56,133.576c-3.923-6.229-2.121-15.068-1.9-16.062a99.352,99.352,0,0,1,2.323-10.152c.867-3.258,3.081-9.824,5.135-15.279,1.069-3.165,5.177-14.26,10.75-17.711a23.718,23.718,0,0,1,8.46-3.224,26.168,26.168,0,0,1,4.95-.379l1.347.017,2.854,1.776h28.874l2.837-1.776,1.364-.017a28.257,28.257,0,0,1,4.958.379,23.9,23.9,0,0,1,8.443,3.216c5.573,3.46,9.681,14.555,10.809,17.871,2.012,5.329,4.217,11.895,5.076,15.127a104.282,104.282,0,0,1,2.382,10.413c.168.732,1.961,9.571-1.953,15.775a15.4,15.4,0,0,1-4.916,5.059c-1.482.934-4.621,2.3-6.221,2.054-1.81-.1-3.679-1-5.9-2.837a41.879,41.879,0,0,1-5.143-5.514l-1.574-1.886a15.225,15.225,0,0,0-5.505-4.352H85.263a15.188,15.188,0,0,0-5.505,4.352l-1.633,1.945a41.31,41.31,0,0,1-5.068,5.438c-2.231,1.852-4.108,2.753-5.918,2.854Zm76.065-9.538h0Zm-58.7-50.609c-.53.042-1.2.109-2.054.244a14.036,14.036,0,0,0-4.807,1.869c-1.583.985-4.781,7.046-6.709,12.728-1.987,5.27-4.116,11.575-4.908,14.513a96.991,96.991,0,0,0-2.163,9.47c-.455,2.138-.842,6.785.564,9.016a5.814,5.814,0,0,0,1.886,2.012,2.581,2.581,0,0,0,.4.211l.328-.253a33.859,33.859,0,0,0,3.8-4.175l1.751-2.079c5.337-6.2,10.236-7.45,11.162-7.635l41.122-.1.471.1c.934.185,5.825,1.431,11.179,7.635l1.7,2.029a34.092,34.092,0,0,0,3.855,4.234c.118.093.219.168.311.244.16-.067.295-.143.421-.211a5.7,5.7,0,0,0,1.86-2.02c1.423-2.239,1.027-6.945.631-8.746a97.183,97.183,0,0,0-2.222-9.731c-.783-2.921-2.913-9.226-4.84-14.361-1.987-5.834-5.186-11.895-6.776-12.88a14.265,14.265,0,0,0-4.79-1.869c-.867-.135-1.541-.2-2.071-.244l-2.82,1.768H87.132Z" transform="translate(-53.497 -70.762)"/>
      </g>
    </g>
    <g id="Group_581" data-name="Group 581" transform="translate(59.766 44.594)">
      <g id="Group_580" data-name="Group 580">
        <circle id="Ellipse_189" data-name="Ellipse 189" cx="4.865" cy="4.865" r="4.865"/>
      </g>
    </g>
  </g>
</svg>
