<?xml version="1.0" encoding="utf-8"?>
<!-- Generator: Adobe Illustrator 25.1.0, SVG Export Plug-In . SVG Version: 6.00 Build 0)  -->
<svg version="1.1" id="Layer_1" xmlns="http://www.w3.org/2000/svg" xmlns:xlink="http://www.w3.org/1999/xlink" x="0px" y="0px"
	 viewBox="0 0 414 591" style="enable-background:new 0 0 414 591;" xml:space="preserve">
<style type="text/css">
	.st0{fill:#FFFFFF;}
	.st1{fill:none;stroke:#231F20;stroke-linecap:round;stroke-linejoin:round;}
	.st2{fill:#231F20;}
	.st3{enable-background:new    ;}
</style>
<rect x="-0.5" y="0.5" class="st0" width="413.9" height="588.8"/>
<g>
	<g>
		<g id="X" transform="translate(-554 -8362)">
			<g id="X-2" transform="translate(633.655 8367)">
				<g id="Group_534" transform="translate(0 64.378)">
					<path id="Path_1069" class="st1" d="M0,0v295.8l117.3,36.8V32L0,0z"/>
					<path id="Path_1070" class="st1" d="M234.5,0v295.8l-117.3,36.8V32L234.5,0z"/>
				</g>
				<g id="Group_548" transform="translate(0 33.007)">
					<path id="Path_1071" class="st1" d="M234.5,31.4L117.6,63.6L0,31.4L117.5,0L234.5,31.4z"/>
					<g id="Group_547" transform="translate(8.278 2.139)">
						<g id="Group_535" transform="translate(0 28.14)">
							<path id="Path_1072" class="st1" d="M6.9,0.3c1.5,0.4,1.5,1.1-0.1,1.5C4.9,2.3,3,2.3,1.1,1.8c-1.5-0.4-1.5-1.1,0.1-1.5
								C3.1-0.1,5-0.1,6.9,0.3z"/>
							<path id="Path_1073" class="st1" d="M16.3,2.9c1.5,0.4,1.5,1.1-0.1,1.5c-1.9,0.4-3.8,0.4-5.7,0C9.1,4,9.1,3.3,10.7,2.9
								C12.5,2.5,14.5,2.5,16.3,2.9z"/>
							<path id="Path_1074" class="st1" d="M25.8,5.5c1.5,0.4,1.5,1.1-0.1,1.5c-1.9,0.4-3.8,0.4-5.7,0c-1.5-0.4-1.5-1.1,0.1-1.5
								C22,5.1,24,5.1,25.8,5.5z"/>
							<path id="Path_1075" class="st1" d="M35.4,8.1c1.6,0.4,1.5,1.1,0,1.5c-1.9,0.4-3.8,0.4-5.7,0c-1.6-0.4-1.5-1.1,0.1-1.5
								C31.6,7.7,33.5,7.7,35.4,8.1z"/>
							<path id="Path_1076" class="st1" d="M44.9,10.7c1.6,0.4,1.5,1.1,0,1.5c-1.9,0.4-3.8,0.4-5.7,0c-1.6-0.4-1.5-1.1,0-1.5
								C41.1,10.3,43,10.3,44.9,10.7z"/>
							<path id="Path_1077" class="st1" d="M54.5,13.3c1.6,0.4,1.5,1.1,0,1.5c-1.9,0.4-3.8,0.4-5.7,0c-1.6-0.4-1.5-1.1,0-1.5
								C50.6,12.9,52.6,12.9,54.5,13.3z"/>
							<path id="Path_1078" class="st1" d="M64,16c1.6,0.4,1.5,1.1,0,1.5c-1.9,0.4-3.8,0.4-5.7,0c-1.6-0.4-1.5-1.1,0-1.6
								C60.2,15.5,62.2,15.5,64,16z"/>
							<path id="Path_1079" class="st1" d="M73.6,18.6c1.6,0.4,1.6,1.1,0,1.6c-1.9,0.4-3.8,0.4-5.7,0c-1.6-0.4-1.6-1.1,0-1.6
								C69.8,18.2,71.7,18.2,73.6,18.6z"/>
							<path id="Path_1080" class="st1" d="M83.2,21.2c1.6,0.4,1.6,1.1,0,1.6c-1.9,0.4-3.8,0.4-5.7,0c-1.6-0.4-1.6-1.1,0-1.6
								C79.4,20.8,81.3,20.8,83.2,21.2z"/>
							<path id="Path_1081" class="st1" d="M92.8,23.9c1.6,0.4,1.6,1.1,0,1.6c-1.9,0.4-3.8,0.4-5.7,0c-1.6-0.4-1.6-1.1,0-1.6
								C89,23.4,91,23.4,92.8,23.9z"/>
							<path id="Path_1082" class="st1" d="M102.5,26.5c1.6,0.4,1.6,1.1,0,1.6c-1.9,0.4-3.8,0.4-5.7,0c-1.6-0.4-1.6-1.1,0-1.6
								C98.7,26.1,100.6,26.1,102.5,26.5z"/>
							<path id="Path_1083" class="st1" d="M112.1,29.1c1.6,0.4,1.6,1.1,0,1.6c-1.9,0.4-3.8,0.4-5.7,0c-1.6-0.4-1.6-1.1,0-1.6
								C108.3,28.7,110.3,28.7,112.1,29.1z"/>
						</g>
						<g id="Group_536" transform="translate(9.711 25.547)">
							<path id="Path_1084" class="st1" d="M6.8,0.3c1.5,0.4,1.5,1.1-0.1,1.5C4.9,2.3,3,2.3,1.1,1.8c-1.5-0.4-1.5-1.1,0.1-1.5
								C3.1-0.1,5-0.1,6.8,0.3z"/>
							<path id="Path_1085" class="st1" d="M16.3,2.9c1.5,0.4,1.5,1.1-0.1,1.5c-1.9,0.4-3.8,0.4-5.7,0C9.1,4,9.1,3.3,10.7,2.9
								C12.5,2.5,14.5,2.5,16.3,2.9z"/>
							<path id="Path_1086" class="st1" d="M25.8,5.5c1.5,0.4,1.5,1.1,0,1.5c-1.9,0.4-3.8,0.4-5.7,0c-1.5-0.4-1.5-1.1,0.1-1.5
								C22,5.1,24,5.1,25.8,5.5z"/>
							<path id="Path_1087" class="st1" d="M35.3,8.1c1.6,0.4,1.5,1.1,0,1.5c-1.9,0.4-3.8,0.4-5.7,0c-1.6-0.4-1.5-1.1,0-1.5
								C31.5,7.7,33.5,7.7,35.3,8.1z"/>
							<path id="Path_1088" class="st1" d="M44.9,10.7c1.6,0.4,1.5,1.1,0,1.5c-1.9,0.4-3.8,0.4-5.7,0c-1.6-0.4-1.5-1.1,0-1.5
								C41.1,10.3,43,10.3,44.9,10.7z"/>
							<path id="Path_1089" class="st1" d="M54.4,13.3c1.6,0.4,1.5,1.1,0,1.5c-1.9,0.4-3.8,0.4-5.7,0c-1.6-0.4-1.5-1.1,0-1.5
								C50.6,12.9,52.6,12.9,54.4,13.3z"/>
							<path id="Path_1090" class="st1" d="M64,15.9c1.6,0.4,1.6,1.1,0,1.5c-1.9,0.4-3.8,0.4-5.7,0c-1.6-0.4-1.5-1.1,0-1.5
								C60.2,15.5,62.1,15.5,64,15.9z"/>
							<path id="Path_1091" class="st1" d="M73.6,18.6c1.6,0.4,1.6,1.1,0,1.5c-1.9,0.4-3.8,0.4-5.7,0c-1.6-0.4-1.6-1.1,0-1.5
								C69.8,18.1,71.7,18.1,73.6,18.6z"/>
							<path id="Path_1092" class="st1" d="M83.2,21.2c1.6,0.4,1.6,1.1,0,1.6c-1.9,0.4-3.8,0.4-5.7,0c-1.6-0.4-1.6-1.1,0-1.6
								C79.4,20.7,81.3,20.7,83.2,21.2z"/>
							<path id="Path_1093" class="st1" d="M92.8,23.8c1.6,0.4,1.6,1.1,0,1.6c-1.9,0.4-3.8,0.4-5.7,0c-1.6-0.4-1.6-1.1,0-1.6
								C89,23.4,90.9,23.4,92.8,23.8z"/>
							<path id="Path_1094" class="st1" d="M102.4,26.4c1.6,0.4,1.6,1.1,0,1.6c-1.9,0.4-3.8,0.4-5.7,0c-1.6-0.4-1.6-1.1,0-1.6
								C98.6,26,100.6,26,102.4,26.4z"/>
							<path id="Path_1095" class="st1" d="M112.1,29.1c1.6,0.4,1.6,1.1,0,1.6c-1.9,0.4-3.8,0.4-5.7,0c-1.6-0.4-1.6-1.1,0-1.6
								C108.3,28.6,110.2,28.6,112.1,29.1z"/>
						</g>
						<g id="Group_537" transform="translate(19.396 22.962)">
							<path id="Path_1096" class="st1" d="M6.8,0.3c1.5,0.4,1.5,1.1-0.1,1.5C4.9,2.3,3,2.3,1.1,1.8c-1.5-0.4-1.5-1.1,0.1-1.5
								C3.1-0.1,5-0.1,6.8,0.3z"/>
							<path id="Path_1097" class="st1" d="M16.3,2.9c1.5,0.4,1.5,1.1,0,1.5c-1.9,0.4-3.8,0.4-5.6,0c-1.6-0.4-1.6-1.1,0-1.5
								C12.5,2.5,14.5,2.5,16.3,2.9z"/>
							<path id="Path_1098" class="st1" d="M25.8,5.5c1.5,0.4,1.5,1.1,0,1.5c-1.9,0.4-3.8,0.4-5.6,0c-1.5-0.4-1.5-1.1,0-1.5
								C22,5.1,23.9,5.1,25.8,5.5z"/>
							<path id="Path_1099" class="st1" d="M35.3,8.1c1.6,0.4,1.5,1.1,0,1.5c-1.9,0.4-3.8,0.4-5.7,0c-1.6-0.4-1.5-1.1,0-1.5
								C31.5,7.7,33.5,7.7,35.3,8.1z"/>
							<path id="Path_1100" class="st1" d="M44.8,10.7c1.6,0.4,1.5,1.1,0,1.5c-1.9,0.4-3.8,0.4-5.7,0c-1.6-0.4-1.5-1.1,0-1.5
								C41,10.3,43,10.3,44.8,10.7z"/>
							<path id="Path_1101" class="st1" d="M54.4,13.3c1.6,0.4,1.5,1.1,0,1.5c-1.9,0.4-3.8,0.4-5.7,0c-1.6-0.4-1.5-1.1,0-1.5
								C50.6,12.9,52.5,12.9,54.4,13.3z"/>
							<path id="Path_1102" class="st1" d="M63.9,15.9c1.6,0.4,1.6,1.1,0,1.5c-1.9,0.4-3.8,0.4-5.7,0c-1.6-0.4-1.6-1.1,0-1.5
								C60.2,15.5,62.1,15.5,63.9,15.9z"/>
							<path id="Path_1103" class="st1" d="M73.5,18.5c1.6,0.4,1.6,1.1,0,1.5c-1.9,0.4-3.8,0.4-5.7,0c-1.6-0.4-1.6-1.1,0-1.5
								C69.7,18.1,71.7,18.1,73.5,18.5z"/>
							<path id="Path_1104" class="st1" d="M83.1,21.1c1.6,0.4,1.6,1.1,0,1.5c-1.9,0.4-3.8,0.4-5.7,0c-1.6-0.4-1.6-1.1,0-1.5
								C79.3,20.7,81.3,20.7,83.1,21.1z"/>
							<path id="Path_1105" class="st1" d="M92.7,23.7c1.6,0.4,1.6,1.1,0,1.6c-1.9,0.4-3.8,0.4-5.7,0c-1.6-0.4-1.6-1.1,0-1.6
								C88.9,23.3,90.9,23.3,92.7,23.7z"/>
							<path id="Path_1106" class="st1" d="M102.4,26.4c1.6,0.4,1.6,1.1,0,1.6c-1.9,0.4-3.8,0.4-5.7,0c-1.6-0.4-1.6-1.1,0-1.6
								C98.6,25.9,100.5,25.9,102.4,26.4z"/>
							<path id="Path_1107" class="st1" d="M112,29c1.6,0.4,1.6,1.1,0,1.6c-1.9,0.4-3.8,0.4-5.7,0c-1.6-0.4-1.6-1.1,0-1.6
								C108.2,28.6,110.2,28.6,112,29z"/>
						</g>
						<g id="Group_538" transform="translate(29.055 20.383)">
							<path id="Path_1108" class="st1" d="M6.8,0.3c1.5,0.4,1.5,1.1,0,1.5C4.9,2.3,3,2.3,1.1,1.8c-1.5-0.4-1.5-1.1,0-1.5
								C3-0.1,5-0.1,6.8,0.3z"/>
							<path id="Path_1109" class="st1" d="M16.3,2.9c1.5,0.4,1.5,1.1,0,1.5c-1.9,0.4-3.8,0.4-5.6,0c-1.5-0.4-1.5-1.1,0-1.5
								C12.5,2.5,14.4,2.5,16.3,2.9z"/>
							<path id="Path_1110" class="st1" d="M25.8,5.5c1.5,0.4,1.5,1.1,0,1.5c-1.9,0.4-3.8,0.4-5.6,0c-1.5-0.4-1.5-1.1,0-1.5
								C22,5.1,23.9,5.1,25.8,5.5z"/>
							<path id="Path_1111" class="st1" d="M35.3,8.1c1.5,0.4,1.5,1.1,0,1.5c-1.9,0.4-3.8,0.4-5.6,0c-1.5-0.4-1.5-1.1,0-1.5
								C31.5,7.6,33.4,7.6,35.3,8.1z"/>
							<path id="Path_1112" class="st1" d="M44.8,10.7c1.6,0.4,1.5,1.1,0,1.5c-1.9,0.4-3.8,0.4-5.6,0c-1.6-0.4-1.5-1.1,0-1.5
								C41,10.2,43,10.2,44.8,10.7z"/>
							<path id="Path_1113" class="st1" d="M54.4,13.3c1.6,0.4,1.5,1.1,0,1.5c-1.9,0.4-3.8,0.4-5.7,0c-1.6-0.4-1.5-1.1,0-1.5
								C50.6,12.8,52.5,12.8,54.4,13.3z"/>
							<path id="Path_1114" class="st1" d="M63.9,15.9c1.6,0.4,1.6,1.1,0,1.5c-1.9,0.4-3.8,0.4-5.7,0c-1.6-0.4-1.6-1.1,0-1.5
								C60.1,15.4,62.1,15.4,63.9,15.9z"/>
							<path id="Path_1115" class="st1" d="M73.5,18.5c1.6,0.4,1.6,1.1,0,1.5c-1.9,0.4-3.8,0.4-5.7,0c-1.6-0.4-1.6-1.1,0-1.5
								C69.7,18,71.6,18,73.5,18.5z"/>
							<path id="Path_1116" class="st1" d="M83.1,21.1c1.6,0.4,1.6,1.1,0,1.5c-1.9,0.4-3.8,0.4-5.7,0c-1.6-0.4-1.6-1.1,0-1.5
								C79.3,20.7,81.2,20.7,83.1,21.1z"/>
							<path id="Path_1117" class="st1" d="M92.7,23.7c1.6,0.4,1.6,1.1,0,1.5c-1.9,0.4-3.8,0.4-5.7,0c-1.6-0.4-1.6-1.1,0-1.5
								C88.9,23.3,90.8,23.3,92.7,23.7z"/>
							<path id="Path_1118" class="st1" d="M102.3,26.3c1.6,0.4,1.6,1.1,0,1.6c-1.9,0.4-3.8,0.4-5.7,0c-1.6-0.4-1.6-1.1,0-1.6
								C98.5,25.9,100.5,25.9,102.3,26.3z"/>
							<path id="Path_1119" class="st1" d="M112,28.9c1.6,0.4,1.6,1.1,0,1.6c-1.9,0.4-3.8,0.4-5.7,0c-1.6-0.4-1.6-1.1,0-1.6
								C108.2,28.5,110.1,28.5,112,28.9z"/>
						</g>
						<g id="Group_539" transform="translate(38.688 17.811)">
							<path id="Path_1120" class="st1" d="M6.8,0.3c1.5,0.4,1.5,1.1,0,1.5C4.9,2.2,3,2.2,1.1,1.8c-1.5-0.4-1.5-1.1,0-1.5
								C3-0.1,5-0.1,6.8,0.3z"/>
							<path id="Path_1121" class="st1" d="M16.3,2.9c1.5,0.4,1.5,1.1,0,1.5c-1.9,0.4-3.8,0.4-5.6,0c-1.5-0.4-1.5-1.1,0-1.5
								C12.5,2.5,14.4,2.5,16.3,2.9z"/>
							<path id="Path_1122" class="st1" d="M25.8,5.5c1.5,0.4,1.5,1.1,0,1.5c-1.9,0.4-3.8,0.4-5.6,0c-1.5-0.4-1.5-1.1,0-1.5
								C22,5,23.9,5,25.8,5.5z"/>
							<path id="Path_1123" class="st1" d="M35.3,8c1.5,0.4,1.5,1.1,0,1.5c-1.9,0.4-3.8,0.4-5.6,0c-1.5-0.4-1.5-1.1,0-1.5
								C31.5,7.6,33.4,7.6,35.3,8z"/>
							<path id="Path_1124" class="st1" d="M44.8,10.6c1.6,0.4,1.5,1.1,0,1.5c-1.9,0.4-3.8,0.4-5.6,0c-1.6-0.4-1.5-1.1,0-1.5
								C41,10.2,42.9,10.2,44.8,10.6z"/>
							<path id="Path_1125" class="st1" d="M54.3,13.2c1.6,0.4,1.6,1.1,0,1.5c-1.9,0.4-3.8,0.4-5.6,0c-1.6-0.4-1.5-1.1,0-1.5
								C50.5,12.8,52.5,12.8,54.3,13.2z"/>
							<path id="Path_1126" class="st1" d="M63.9,15.8c1.6,0.4,1.6,1.1,0,1.5c-1.9,0.4-3.8,0.4-5.6,0c-1.6-0.4-1.6-1.1,0-1.5
								C60.1,15.4,62,15.4,63.9,15.8z"/>
							<path id="Path_1127" class="st1" d="M73.4,18.4c1.6,0.4,1.6,1.1,0,1.5c-1.9,0.4-3.8,0.4-5.7,0c-1.6-0.4-1.6-1.1,0-1.5
								C69.7,18,71.6,18,73.4,18.4z"/>
							<path id="Path_1128" class="st1" d="M83,21c1.6,0.4,1.6,1.1,0,1.5c-1.9,0.4-3.8,0.4-5.7,0c-1.6-0.4-1.6-1.1,0-1.5
								C79.2,20.6,81.2,20.6,83,21z"/>
							<path id="Path_1129" class="st1" d="M92.6,23.6c1.6,0.4,1.6,1.1,0,1.5c-1.9,0.4-3.8,0.4-5.7,0c-1.6-0.4-1.6-1.1,0-1.5
								C88.9,23.2,90.8,23.2,92.6,23.6z"/>
							<path id="Path_1130" class="st1" d="M102.3,26.3c1.6,0.4,1.6,1.1,0,1.5c-1.9,0.4-3.8,0.4-5.7,0c-1.6-0.4-1.6-1.1,0-1.5
								C98.5,25.8,100.4,25.8,102.3,26.3z"/>
							<path id="Path_1131" class="st1" d="M111.9,28.9c1.6,0.4,1.6,1.1,0,1.6c-1.9,0.4-3.8,0.4-5.7,0c-1.6-0.4-1.6-1.1,0-1.6
								C108.1,28.5,110.1,28.5,111.9,28.9z"/>
						</g>
						<g id="Group_540" transform="translate(76.961 7.592)">
							<path id="Path_1132" class="st1" d="M6.8,0.3c1.5,0.4,1.5,1.1,0,1.5C4.9,2.2,3,2.2,1.1,1.8c-1.5-0.4-1.5-1.1,0-1.5
								C3-0.1,4.9-0.1,6.8,0.3z"/>
							<path id="Path_1133" class="st1" d="M16.2,2.9c1.5,0.4,1.5,1.1,0,1.5c-1.8,0.4-3.8,0.4-5.6,0c-1.5-0.4-1.5-1.1,0-1.5
								C12.5,2.4,14.4,2.4,16.2,2.9z"/>
							<path id="Path_1134" class="st1" d="M25.7,5.4c1.5,0.4,1.5,1.1,0,1.5c-1.8,0.4-3.8,0.4-5.6,0c-1.5-0.4-1.5-1.1,0-1.5
								C21.9,5,23.8,5,25.7,5.4z"/>
							<path id="Path_1135" class="st1" d="M35.2,8c1.5,0.4,1.5,1.1,0,1.5c-1.8,0.4-3.8,0.4-5.6,0C28,9.1,28,8.4,29.6,8
								C31.4,7.6,33.3,7.6,35.2,8z"/>
							<path id="Path_1136" class="st1" d="M44.7,10.5c1.5,0.4,1.6,1.1,0,1.5c-1.8,0.4-3.8,0.4-5.6,0c-1.5-0.4-1.6-1.1,0-1.5
								C40.9,10.1,42.8,10.1,44.7,10.5z"/>
							<path id="Path_1137" class="st1" d="M54.2,13.1c1.6,0.4,1.6,1.1,0,1.5c-1.8,0.4-3.8,0.4-5.6,0c-1.6-0.4-1.6-1.1,0-1.5
								C50.4,12.7,52.3,12.7,54.2,13.1z"/>
							<path id="Path_1138" class="st1" d="M63.7,15.7c1.6,0.4,1.6,1.1,0,1.5c-1.8,0.4-3.8,0.4-5.6,0c-1.6-0.4-1.6-1.1,0-1.5
								C60,15.3,61.9,15.3,63.7,15.7z"/>
							<path id="Path_1139" class="st1" d="M73.3,18.3c1.6,0.4,1.6,1.1,0,1.5c-1.8,0.4-3.8,0.4-5.6,0c-1.6-0.4-1.6-1.1,0-1.5
								C69.5,17.8,71.4,17.8,73.3,18.3z"/>
							<path id="Path_1140" class="st1" d="M82.9,20.8c1.6,0.4,1.6,1.1,0,1.5c-1.8,0.4-3.8,0.4-5.6,0c-1.6-0.4-1.6-1.1,0-1.5
								C79.1,20.4,81,20.4,82.9,20.8z"/>
							<path id="Path_1141" class="st1" d="M92.4,23.4c1.6,0.4,1.6,1.1,0,1.5c-1.9,0.4-3.8,0.4-5.6,0c-1.6-0.4-1.6-1.1,0-1.5
								C88.7,23,90.6,23,92.4,23.4z"/>
							<path id="Path_1142" class="st1" d="M102.1,26c1.6,0.4,1.6,1.1,0,1.5c-1.9,0.4-3.8,0.4-5.6,0c-1.6-0.4-1.6-1.1,0-1.5
								C98.3,25.6,100.2,25.6,102.1,26z"/>
							<path id="Path_1143" class="st1" d="M111.7,28.6c1.6,0.4,1.6,1.1,0.1,1.5c-1.9,0.4-3.8,0.4-5.6,0c-1.6-0.4-1.6-1.1-0.1-1.5
								C107.9,28.2,109.8,28.2,111.7,28.6z"/>
						</g>
						<g id="Group_541" transform="translate(86.466 5.055)">
							<path id="Path_1144" class="st1" d="M6.7,0.3c1.5,0.4,1.5,1.1,0,1.5C4.9,2.2,3,2.2,1.1,1.8c-1.5-0.4-1.5-1.1,0-1.5
								C3-0.1,4.9-0.1,6.7,0.3z"/>
							<path id="Path_1145" class="st1" d="M16.2,2.9c1.5,0.4,1.5,1.1,0,1.5c-1.8,0.4-3.7,0.4-5.6,0c-1.5-0.4-1.5-1.1,0-1.5
								C12.4,2.4,14.3,2.4,16.2,2.9z"/>
							<path id="Path_1146" class="st1" d="M25.6,5.4c1.5,0.4,1.5,1.1,0,1.5c-1.8,0.4-3.7,0.4-5.6,0c-1.5-0.4-1.5-1.1,0-1.5
								C21.9,5,23.8,5,25.6,5.4z"/>
							<path id="Path_1147" class="st1" d="M35.1,8c1.5,0.4,1.6,1.1,0,1.5c-1.8,0.4-3.8,0.4-5.6,0C28,9,28,8.4,29.5,8
								C31.4,7.5,33.3,7.5,35.1,8z"/>
							<path id="Path_1148" class="st1" d="M44.6,10.5c1.5,0.4,1.6,1.1,0,1.5c-1.8,0.4-3.8,0.4-5.6,0c-1.5-0.4-1.6-1.1,0-1.5
								C40.9,10.1,42.8,10.1,44.6,10.5z"/>
							<path id="Path_1149" class="st1" d="M54.1,13.1c1.6,0.4,1.6,1.1,0,1.5c-1.8,0.4-3.8,0.4-5.6,0c-1.6-0.4-1.6-1.1,0-1.5
								C50.4,12.7,52.3,12.7,54.1,13.1z"/>
							<path id="Path_1150" class="st1" d="M63.7,15.6c1.6,0.4,1.6,1.1,0,1.5c-1.8,0.4-3.8,0.4-5.6,0c-1.6-0.4-1.6-1.1,0-1.5
								C59.9,15.2,61.8,15.2,63.7,15.6z"/>
							<path id="Path_1151" class="st1" d="M73.2,18.2c1.6,0.4,1.6,1.1,0,1.5c-1.8,0.4-3.8,0.4-5.6,0c-1.6-0.4-1.6-1.1,0-1.5
								C69.5,17.8,71.4,17.8,73.2,18.2z"/>
							<path id="Path_1152" class="st1" d="M82.8,20.8c1.6,0.4,1.6,1.1,0,1.5c-1.8,0.4-3.8,0.4-5.6,0c-1.6-0.4-1.6-1.1,0-1.5
								C79,20.4,81,20.4,82.8,20.8z"/>
							<path id="Path_1153" class="st1" d="M92.4,23.4c1.6,0.4,1.6,1.1,0,1.5c-1.8,0.4-3.8,0.4-5.6,0c-1.6-0.4-1.6-1.1,0-1.5
								C88.6,23,90.5,23,92.4,23.4z"/>
							<path id="Path_1154" class="st1" d="M102,26c1.6,0.4,1.6,1.1,0.1,1.5c-1.8,0.4-3.8,0.4-5.6,0c-1.6-0.4-1.6-1.1-0.1-1.5
								C98.2,25.5,100.2,25.5,102,26z"/>
							<path id="Path_1155" class="st1" d="M111.6,28.6c1.6,0.4,1.6,1.1,0.1,1.5c-1.9,0.4-3.8,0.4-5.6,0c-1.6-0.4-1.6-1.1-0.1-1.5
								C107.8,28.1,109.8,28.1,111.6,28.6z"/>
						</g>
						<g id="Group_542" transform="translate(95.944 2.524)">
							<path id="Path_1156" class="st1" d="M6.7,0.3c1.5,0.4,1.5,1.1,0,1.5C4.9,2.2,3,2.2,1.2,1.8c-1.5-0.4-1.5-1.1,0-1.5
								C3-0.1,4.9-0.1,6.7,0.3z"/>
							<path id="Path_1157" class="st1" d="M16.2,2.8c1.5,0.4,1.5,1.1,0,1.5c-1.8,0.4-3.7,0.4-5.6,0c-1.6-0.4-1.6-1,0-1.5
								C12.4,2.4,14.3,2.4,16.2,2.8z"/>
							<path id="Path_1158" class="st1" d="M25.6,5.4c1.5,0.4,1.5,1.1,0,1.5c-1.8,0.4-3.7,0.4-5.6,0c-1.5-0.4-1.5-1.1,0-1.5
								C21.9,5,23.8,5,25.6,5.4z"/>
							<path id="Path_1159" class="st1" d="M35.1,7.9c1.5,0.4,1.6,1.1,0,1.5c-1.8,0.4-3.7,0.4-5.6,0c-1.5-0.4-1.5-1,0-1.5
								C31.4,7.5,33.3,7.5,35.1,7.9z"/>
							<path id="Path_1160" class="st1" d="M44.6,10.5c1.5,0.4,1.6,1.1,0,1.5c-1.8,0.4-3.7,0.4-5.6,0c-1.5-0.4-1.6-1.1,0-1.5
								C40.9,10.1,42.8,10.1,44.6,10.5z"/>
							<path id="Path_1161" class="st1" d="M54.1,13c1.6,0.4,1.6,1.1,0,1.5c-1.8,0.4-3.8,0.4-5.6,0c-1.6-0.4-1.6-1.1,0-1.5
								C50.4,12.6,52.3,12.6,54.1,13z"/>
							<path id="Path_1162" class="st1" d="M63.6,15.6c1.6,0.4,1.6,1.1,0,1.5c-1.8,0.4-3.8,0.4-5.6,0c-1.6-0.4-1.6-1.1,0-1.5
								C59.9,15.2,61.8,15.2,63.6,15.6z"/>
							<path id="Path_1163" class="st1" d="M73.2,18.2c1.6,0.4,1.6,1.1,0,1.5c-1.8,0.4-3.8,0.4-5.6,0c-1.6-0.4-1.6-1.1,0-1.5
								C69.4,17.8,71.4,17.8,73.2,18.2z"/>
							<path id="Path_1164" class="st1" d="M82.8,20.7c1.6,0.4,1.6,1.1,0,1.5c-1.8,0.4-3.8,0.4-5.6,0c-1.6-0.4-1.6-1.1,0-1.5
								C79,20.3,80.9,20.3,82.8,20.7z"/>
							<path id="Path_1165" class="st1" d="M92.3,23.3c1.6,0.4,1.6,1.1,0.1,1.5c-1.8,0.4-3.8,0.4-5.6,0c-1.6-0.4-1.6-1.1-0.1-1.5
								C88.6,22.9,90.5,22.9,92.3,23.3z"/>
							<path id="Path_1166" class="st1" d="M101.9,25.9c1.6,0.4,1.6,1.1,0.1,1.5c-1.8,0.4-3.8,0.4-5.6,0c-1.6-0.4-1.6-1.1-0.1-1.5
								C98.2,25.5,100.1,25.5,101.9,25.9z"/>
							<path id="Path_1167" class="st1" d="M111.6,28.5c1.6,0.4,1.6,1.1,0.1,1.5c-1.8,0.4-3.8,0.4-5.6,0c-1.6-0.4-1.6-1.1-0.1-1.5
								C107.8,28.1,109.7,28.1,111.6,28.5z"/>
						</g>
						<g id="Group_543" transform="translate(105.398)">
							<path id="Path_1168" class="st1" d="M6.7,0.3c1.5,0.4,1.5,1.1,0,1.5C4.9,2.2,3,2.2,1.1,1.8c-1.5-0.4-1.5-1.1,0-1.5
								C3-0.1,4.9-0.1,6.7,0.3z"/>
							<path id="Path_1169" class="st1" d="M16.2,2.8c1.5,0.4,1.5,1.1,0,1.5c-1.8,0.4-3.7,0.4-5.6,0c-1.5-0.4-1.5-1.1,0-1.5
								C12.4,2.4,14.3,2.4,16.2,2.8z"/>
							<path id="Path_1170" class="st1" d="M25.6,5.4c1.5,0.4,1.5,1.1,0,1.5c-1.8,0.4-3.7,0.4-5.6,0c-1.5-0.4-1.5-1.1,0-1.5
								C21.9,5,23.8,5,25.6,5.4z"/>
							<path id="Path_1171" class="st1" d="M35.1,7.9c1.5,0.4,1.6,1.1,0,1.5c-1.8,0.4-3.7,0.4-5.6,0C28,9,28,8.3,29.5,7.9
								C31.3,7.5,33.3,7.5,35.1,7.9z"/>
							<path id="Path_1172" class="st1" d="M44.6,10.5c1.5,0.4,1.6,1.1,0,1.5c-1.8,0.4-3.7,0.4-5.6,0c-1.5-0.4-1.6-1.1,0-1.5
								C40.8,10.1,42.7,10.1,44.6,10.5z"/>
							<path id="Path_1173" class="st1" d="M54.1,13c1.6,0.4,1.6,1.1,0,1.5c-1.8,0.4-3.7,0.4-5.6,0c-1.6-0.4-1.6-1.1,0-1.5
								C50.3,12.6,52.2,12.6,54.1,13z"/>
							<path id="Path_1174" class="st1" d="M63.6,15.6c1.6,0.4,1.6,1.1,0,1.5c-1.8,0.4-3.7,0.4-5.6,0c-1.6-0.4-1.6-1.1,0-1.5
								C59.9,15.2,61.8,15.2,63.6,15.6z"/>
							<path id="Path_1175" class="st1" d="M73.2,18.1c1.6,0.4,1.6,1.1,0,1.5c-1.8,0.4-3.8,0.4-5.6,0c-1.6-0.4-1.6-1.1,0-1.5
								C69.4,17.7,71.3,17.7,73.2,18.1z"/>
							<path id="Path_1176" class="st1" d="M82.7,20.7c1.6,0.4,1.6,1.1,0.1,1.5c-1.8,0.4-3.8,0.4-5.6,0c-1.6-0.4-1.6-1.1-0.1-1.5
								C79,20.3,80.9,20.3,82.7,20.7z"/>
							<path id="Path_1177" class="st1" d="M92.3,23.3c1.6,0.4,1.6,1.1,0.1,1.5c-1.8,0.4-3.8,0.4-5.6,0c-1.6-0.4-1.6-1.1-0.1-1.5
								C88.5,22.9,90.5,22.9,92.3,23.3z"/>
							<path id="Path_1178" class="st1" d="M101.9,25.8c1.6,0.4,1.6,1.1,0.1,1.5c-1.8,0.4-3.8,0.4-5.6,0c-1.6-0.4-1.6-1.1-0.1-1.5
								C98.1,25.4,100,25.4,101.9,25.8z"/>
							<path id="Path_1179" class="st1" d="M111.5,28.4c1.6,0.4,1.6,1.1,0.1,1.5c-1.8,0.4-3.8,0.4-5.6,0c-1.6-0.4-1.6-1.1-0.1-1.5
								C107.7,28,109.7,28,111.5,28.4z"/>
						</g>
						<g id="Group_544" transform="translate(67.431 10.137)">
							<path id="Path_1180" class="st1" d="M6.8,0.3c1.5,0.4,1.5,1.1,0,1.5C4.9,2.2,3,2.2,1.1,1.8c-1.5-0.4-1.5-1.1,0-1.5
								C3-0.1,4.9-0.1,6.8,0.3z"/>
							<path id="Path_1181" class="st1" d="M16.2,2.9c1.5,0.4,1.5,1.1,0,1.5c-1.8,0.4-3.8,0.4-5.6,0c-1.5-0.4-1.5-1.1,0-1.5
								C12.5,2.5,14.4,2.5,16.2,2.9z"/>
							<path id="Path_1182" class="st1" d="M25.7,5.4c1.5,0.4,1.5,1.1,0,1.5c-1.8,0.4-3.8,0.4-5.6,0c-1.5-0.4-1.5-1.1,0-1.5
								C21.9,5,23.8,5,25.7,5.4z"/>
							<path id="Path_1183" class="st1" d="M35.2,8c1.5,0.4,1.5,1.1,0,1.5c-1.8,0.4-3.8,0.4-5.6,0C28,9.1,28,8.4,29.6,8
								C31.4,7.6,33.3,7.6,35.2,8z"/>
							<path id="Path_1184" class="st1" d="M44.7,10.6c1.6,0.4,1.6,1.1,0,1.5c-1.8,0.4-3.8,0.4-5.6,0c-1.5-0.4-1.5-1.1,0-1.5
								C40.9,10.1,42.8,10.1,44.7,10.6z"/>
							<path id="Path_1185" class="st1" d="M54.2,13.1c1.6,0.4,1.6,1.1,0,1.5c-1.8,0.4-3.8,0.4-5.6,0c-1.6-0.4-1.6-1.1,0-1.5
								C50.5,12.7,52.4,12.7,54.2,13.1z"/>
							<path id="Path_1186" class="st1" d="M63.8,15.7c1.6,0.4,1.6,1.1,0,1.5c-1.9,0.4-3.8,0.4-5.6,0c-1.6-0.4-1.6-1.1,0-1.5
								C60,15.3,61.9,15.3,63.8,15.7z"/>
							<path id="Path_1187" class="st1" d="M73.3,18.3c1.6,0.4,1.6,1.1,0,1.5c-1.9,0.4-3.8,0.4-5.6,0c-1.6-0.4-1.6-1.1,0-1.5
								C69.6,17.9,71.5,17.9,73.3,18.3z"/>
							<path id="Path_1188" class="st1" d="M82.9,20.9c1.6,0.4,1.6,1.1,0,1.5c-1.9,0.4-3.8,0.4-5.6,0c-1.6-0.4-1.6-1.1,0-1.5
								C79.1,20.5,81,20.5,82.9,20.9z"/>
							<path id="Path_1189" class="st1" d="M92.5,23.5c1.6,0.4,1.6,1.1,0,1.5c-1.9,0.4-3.8,0.4-5.6,0c-1.6-0.4-1.6-1.1,0-1.5
								C88.7,23.1,90.6,23.1,92.5,23.5z"/>
							<path id="Path_1190" class="st1" d="M102.1,26.1c1.6,0.4,1.6,1.1,0,1.5c-1.9,0.4-3.8,0.4-5.6,0c-1.6-0.4-1.6-1.1,0-1.5
								C98.3,25.7,100.3,25.7,102.1,26.1z"/>
							<path id="Path_1191" class="st1" d="M111.7,28.7c1.6,0.4,1.6,1.1,0,1.5c-1.9,0.4-3.8,0.4-5.6,0c-1.6-0.4-1.6-1.1,0-1.5
								C108,28.3,109.9,28.3,111.7,28.7z"/>
						</g>
						<g id="Group_545" transform="translate(48.295 15.246)">
							<path id="Path_1192" class="st1" d="M6.8,0.3c1.5,0.4,1.5,1.1,0,1.5C4.9,2.2,3,2.2,1.1,1.8c-1.5-0.4-1.5-1.1,0-1.5
								C3-0.1,4.9-0.1,6.8,0.3z"/>
							<path id="Path_1193" class="st1" d="M16.3,2.9c1.5,0.4,1.5,1.1,0,1.5c-1.8,0.4-3.8,0.4-5.6,0c-1.5-0.4-1.5-1.1,0-1.5
								C12.5,2.5,14.4,2.5,16.3,2.9z"/>
							<path id="Path_1194" class="st1" d="M25.7,5.5c1.5,0.4,1.5,1.1,0,1.5c-1.9,0.4-3.8,0.4-5.6,0c-1.5-0.4-1.5-1.1,0-1.5
								C22,5,23.9,5,25.7,5.5z"/>
							<path id="Path_1195" class="st1" d="M35.2,8c1.5,0.4,1.5,1.1,0,1.5c-1.9,0.4-3.8,0.4-5.6,0c-1.5-0.4-1.5-1.1,0-1.5
								C31.5,7.6,33.4,7.6,35.2,8z"/>
							<path id="Path_1196" class="st1" d="M44.8,10.6c1.6,0.4,1.5,1.1,0,1.5c-1.9,0.4-3.8,0.4-5.6,0c-1.6-0.4-1.5-1.1,0-1.5
								C41,10.2,42.9,10.2,44.8,10.6z"/>
							<path id="Path_1197" class="st1" d="M54.3,13.2c1.6,0.4,1.6,1.1,0,1.5c-1.9,0.4-3.8,0.4-5.6,0c-1.6-0.4-1.6-1.1,0-1.5
								C50.5,12.8,52.4,12.8,54.3,13.2z"/>
							<path id="Path_1198" class="st1" d="M63.8,15.8c1.6,0.4,1.6,1.1,0,1.5c-1.9,0.4-3.8,0.4-5.6,0c-1.6-0.4-1.6-1.1,0-1.5
								C60.1,15.4,62,15.4,63.8,15.8z"/>
							<path id="Path_1199" class="st1" d="M73.4,18.4c1.6,0.4,1.6,1.1,0,1.5c-1.9,0.4-3.8,0.4-5.6,0c-1.6-0.4-1.6-1.1,0-1.5
								C69.6,18,71.5,18,73.4,18.4z"/>
							<path id="Path_1200" class="st1" d="M83,21c1.6,0.4,1.6,1.1,0,1.5c-1.9,0.4-3.8,0.4-5.6,0c-1.6-0.4-1.6-1.1,0-1.5
								C79.2,20.6,81.1,20.6,83,21z"/>
							<path id="Path_1201" class="st1" d="M92.6,23.6c1.6,0.4,1.6,1.1,0,1.5c-1.9,0.4-3.8,0.4-5.7,0c-1.6-0.4-1.6-1.1,0-1.5
								C88.8,23.2,90.7,23.2,92.6,23.6z"/>
							<path id="Path_1202" class="st1" d="M102.2,26.2c1.6,0.4,1.6,1.1,0,1.5c-1.9,0.4-3.8,0.4-5.7,0c-1.6-0.4-1.6-1.1,0-1.5
								C98.4,25.8,100.4,25.8,102.2,26.2z"/>
							<path id="Path_1203" class="st1" d="M111.9,28.8c1.6,0.4,1.6,1.1,0,1.5c-1.9,0.4-3.8,0.4-5.7,0c-1.6-0.4-1.6-1.1,0-1.5
								C108.1,28.4,110,28.4,111.9,28.8z"/>
						</g>
						<g id="Group_546" transform="translate(57.876 12.688)">
							<path id="Path_1204" class="st1" d="M6.8,0.3c1.5,0.4,1.5,1.1,0,1.5C4.9,2.2,3,2.2,1.1,1.8c-1.5-0.4-1.5-1.1,0-1.5
								C3-0.1,4.9-0.1,6.8,0.3z"/>
							<path id="Path_1205" class="st1" d="M16.2,2.9c1.5,0.4,1.5,1.1,0,1.5c-1.8,0.4-3.8,0.4-5.6,0c-1.5-0.4-1.5-1.1,0-1.5
								C12.5,2.5,14.4,2.5,16.2,2.9z"/>
							<path id="Path_1206" class="st1" d="M25.7,5.4c1.5,0.4,1.5,1.1,0,1.5c-1.8,0.4-3.8,0.4-5.6,0c-1.5-0.4-1.5-1.1,0-1.5
								C22,5,23.9,5,25.7,5.4z"/>
							<path id="Path_1207" class="st1" d="M35.2,8c1.5,0.4,1.5,1.1,0,1.5c-1.8,0.4-3.8,0.4-5.6,0C28,9.1,28,8.4,29.6,8
								C31.4,7.6,33.4,7.6,35.2,8z"/>
							<path id="Path_1208" class="st1" d="M44.7,10.6c1.6,0.4,1.6,1.1,0,1.5c-1.9,0.4-3.8,0.4-5.6,0c-1.6-0.4-1.5-1.1,0-1.5
								C41,10.2,42.9,10.2,44.7,10.6z"/>
							<path id="Path_1209" class="st1" d="M54.3,13.2c1.6,0.4,1.6,1.1,0,1.5c-1.9,0.4-3.8,0.4-5.6,0c-1.6-0.4-1.6-1.1,0-1.5
								C50.5,12.7,52.4,12.7,54.3,13.2z"/>
							<path id="Path_1210" class="st1" d="M63.8,15.7c1.6,0.4,1.6,1.1,0,1.5c-1.9,0.4-3.8,0.4-5.6,0c-1.6-0.4-1.6-1.1,0-1.5
								C60,15.3,61.9,15.3,63.8,15.7z"/>
							<path id="Path_1211" class="st1" d="M73.4,18.3c1.6,0.4,1.6,1.1,0,1.5c-1.9,0.4-3.8,0.4-5.6,0c-1.6-0.4-1.6-1.1,0-1.5
								C69.6,17.9,71.5,17.9,73.4,18.3z"/>
							<path id="Path_1212" class="st1" d="M82.9,20.9c1.6,0.4,1.6,1.1,0,1.5c-1.9,0.4-3.8,0.4-5.6,0c-1.6-0.4-1.6-1.1,0-1.5
								C79.2,20.5,81.1,20.5,82.9,20.9z"/>
							<path id="Path_1213" class="st1" d="M92.5,23.5c1.6,0.4,1.6,1.1,0,1.5c-1.9,0.4-3.8,0.4-5.6,0c-1.6-0.4-1.6-1.1,0-1.5
								C88.8,23.1,90.7,23.1,92.5,23.5z"/>
							<path id="Path_1214" class="st1" d="M102.2,26.1c1.6,0.4,1.6,1.1,0,1.5c-1.9,0.4-3.8,0.4-5.6,0c-1.6-0.4-1.6-1.1,0-1.5
								C98.4,25.7,100.3,25.7,102.2,26.1z"/>
							<path id="Path_1215" class="st1" d="M111.8,28.7c1.6,0.4,1.6,1.1,0,1.5c-1.9,0.4-3.8,0.4-5.7,0c-1.6-0.4-1.6-1.1,0-1.5
								C108,28.3,109.9,28.3,111.8,28.7z"/>
						</g>
					</g>
				</g>
				<line id="Line_20" class="st1" x1="248.6" y1="66.5" x2="248.6" y2="355.9"/>
				<g id="Group_549" transform="translate(128.078 105.995)">
					<path id="Path_1216" class="st2" d="M1.9,1.8L1.9,1.8L1.9,1.8C-0.4,4-0.6,7.6,1.3,10.1l0,0l0,0C0.8,8.6,3.3,5,4.6,3.5l0,0l0,0
						C2.4,1.3,1.9,1.8,1.9,1.8"/>
					<path id="Path_1217" class="st2" d="M10.7,1.8L10.7,1.8L10.7,1.8c2.3,2.2,2.5,5.8,0.6,8.3l0,0l0,0C11.8,8.6,9.3,5,8,3.5l0,0
						l0,0C10.2,1.3,10.7,1.8,10.7,1.8"/>
					<path id="Path_1218" class="st2" d="M6.3,0c1.2,0,2.3,0.3,3.3,0.9l0,0l0,0c-1.2-0.2-3.1,0.9-3.3,1l0,0l0,0C5.8,1.6,4.1,0.7,3,1
						l0,0l0,0C4,0.3,5.1,0,6.3,0"/>
					<path id="Path_1219" class="st2" d="M6.3,5.1L6.3,5.1c1.9,1.4,5.1,5,4.2,6l0,0c-2.4,2.1-5.9,2.1-8.3,0l0,0
						C1.2,10.1,4.4,6.5,6.3,5.1L6.3,5.1"/>
				</g>
				<g id="Group_551" transform="translate(0 0)">
					<line id="Line_21" class="st1" x1="0" y1="50.6" x2="117.5" y2="19.2"/>
				</g>
				<g id="Group_553" transform="translate(0 374.011)">
					<line id="Line_22" class="st1" x1="0" y1="0" x2="117.3" y2="36.8"/>
				</g>
				<g class="st3">
					<path d="M44.6,481v-14.5c-0.3,0.3-0.9,0.7-1.7,1.1s-1.5,0.7-2.2,0.9v-1.9c0.8-0.2,1.8-0.6,2.7-1.1s1.8-1,2.4-1.6h0.7V481H44.6z
						"/>
					<path d="M60.5,475.9c0,1.6-0.5,2.9-1.6,3.9s-2.5,1.5-4.3,1.5c-1.6,0-2.7-0.2-3.5-0.7v-2c1.1,0.7,2.3,1.1,3.5,1.1s2.1-0.3,2.9-1
						s1.1-1.6,1.1-2.7s-0.4-2-1.1-2.6s-1.8-0.9-3.2-0.9c-1.1,0-2.1,0-2.8,0.1l0.6-8.4h7.8v1.7h-6.1l-0.3,4.9l1.5-0.1
						c1.8,0,3.1,0.4,4.1,1.3S60.5,474.3,60.5,475.9z"/>
					<path d="M66,479.9c0,0.4-0.1,0.7-0.4,0.9s-0.6,0.4-0.9,0.4c-0.4,0-0.7-0.1-0.9-0.4s-0.4-0.6-0.4-0.9c0-0.4,0.1-0.7,0.4-0.9
						s0.6-0.4,0.9-0.4c0.4,0,0.7,0.1,0.9,0.4S66,479.6,66,479.9z"/>
					<path d="M72.1,481v-14.5c-0.3,0.3-0.9,0.7-1.7,1.1s-1.5,0.7-2.2,0.9v-1.9c0.8-0.2,1.8-0.6,2.7-1.1s1.8-1,2.4-1.6H74V481H72.1z"
						/>
					<path d="M86.6,480.4c-0.9,0.6-2,0.8-3.3,0.8c-1.1,0-2.1-0.3-2.9-0.8s-1.5-1.2-2-2.1s-0.7-2-0.7-3.1c0-2,0.6-3.6,1.7-4.8
						s2.7-1.8,4.5-1.8c1,0,2,0.2,2.8,0.6v2c-0.9-0.6-1.9-0.9-2.9-0.9c-1.2,0-2.3,0.4-3,1.3s-1.2,2-1.2,3.4s0.4,2.5,1.1,3.3
						s1.7,1.2,3,1.2c1,0,2-0.3,3-1L86.6,480.4L86.6,480.4z"/>
					<path d="M106.6,481h-1.9v-6.9c0-1.3-0.2-2.3-0.6-2.9s-1.1-0.9-2.1-0.9c-0.8,0-1.5,0.4-2.1,1.1S99,473,99,474.1v6.8h-1.9v-7.1
						c0-2.4-0.9-3.5-2.7-3.5c-0.8,0-1.5,0.4-2.1,1.1s-0.8,1.6-0.8,2.7v6.8h-1.9v-12h1.9v1.9l0,0c0.9-1.5,2.1-2.2,3.7-2.2
						c0.8,0,1.5,0.2,2.1,0.7s1.1,1.1,1.3,1.8c0.9-1.7,2.2-2.5,4-2.5c2.6,0,4,1.6,4,4.9V481z"/>
					<path d="M124.5,469l-4,6.1l4,5.9h-2.2l-2.4-3.9l-0.5-0.9l0,0l-3,4.8h-2.2l4.1-5.9l-3.9-6.1h2.2c1.7,3,2.6,4.6,2.8,5l0,0l3-5
						H124.5z"/>
					<path d="M135.3,481v-14.5c-0.3,0.3-0.9,0.7-1.7,1.1s-1.5,0.7-2.2,0.9v-1.9c0.8-0.2,1.8-0.6,2.7-1.1s1.8-1,2.4-1.6h0.7V481
						H135.3z"/>
					<path d="M151.1,475.9c0,1.6-0.5,2.9-1.6,3.9s-2.5,1.5-4.3,1.5c-1.6,0-2.7-0.2-3.5-0.7v-2c1.1,0.7,2.3,1.1,3.5,1.1
						s2.1-0.3,2.9-1s1.1-1.6,1.1-2.7s-0.4-2-1.1-2.6s-1.8-0.9-3.2-0.9c-1.1,0-2.1,0-2.8,0.1l0.6-8.4h7.8v1.7h-6.1l-0.3,4.9l1.5-0.1
						c1.8,0,3.1,0.4,4.1,1.3S151.1,474.3,151.1,475.9z"/>
					<path d="M156.7,479.9c0,0.4-0.1,0.7-0.4,0.9s-0.6,0.4-0.9,0.4c-0.4,0-0.7-0.1-0.9-0.4s-0.4-0.6-0.4-0.9c0-0.4,0.1-0.7,0.4-0.9
						s0.6-0.4,0.9-0.4c0.4,0,0.7,0.1,0.9,0.4S156.7,479.6,156.7,479.9z"/>
					<path d="M162.8,481v-14.5c-0.3,0.3-0.9,0.7-1.7,1.1s-1.5,0.7-2.2,0.9v-1.9c0.8-0.2,1.8-0.6,2.7-1.1s1.8-1,2.4-1.6h0.7V481
						H162.8z"/>
					<path d="M177.3,480.4c-0.9,0.6-2,0.8-3.3,0.8c-1.1,0-2.1-0.3-2.9-0.8s-1.5-1.2-2-2.1s-0.7-2-0.7-3.1c0-2,0.6-3.6,1.7-4.8
						s2.7-1.8,4.5-1.8c1,0,2,0.2,2.8,0.6v2c-0.9-0.6-1.9-0.9-2.9-0.9c-1.2,0-2.3,0.4-3,1.3s-1.2,2-1.2,3.4s0.4,2.5,1.1,3.3
						s1.7,1.2,3,1.2c1,0,2-0.3,3-1v1.9H177.3z"/>
					<path d="M197.3,481h-1.9v-6.9c0-1.3-0.2-2.3-0.6-2.9s-1.1-0.9-2.1-0.9c-0.8,0-1.5,0.4-2.1,1.1s-0.9,1.6-0.9,2.7v6.8h-1.9v-7.1
						c0-2.4-0.9-3.5-2.7-3.5c-0.8,0-1.5,0.4-2.1,1.1s-0.8,1.6-0.8,2.7v6.8h-1.9v-12h1.9v1.9l0,0c0.9-1.5,2.1-2.2,3.7-2.2
						c0.8,0,1.5,0.2,2.1,0.7s1.1,1.1,1.3,1.8c0.9-1.7,2.2-2.5,4-2.5c2.6,0,4,1.6,4,4.9V481z"/>
				</g>
				<g class="st3">
					<path d="M85.7,503l-4,6.1l4,5.9h-2.2l-2.4-3.9l-0.5-0.9l0,0l-3,4.8h-2.2l4.1-5.9l-3.9-6.1h2.2c1.7,3,2.6,4.6,2.8,5l0,0l3-5
						H85.7z"/>
					<path d="M102.9,510.2c0,1.5-0.5,2.7-1.6,3.7s-2.5,1.4-4.3,1.4c-1.6,0-2.9-0.3-3.8-0.9v-2.1c1.1,0.9,2.4,1.3,3.9,1.3
						c1.2,0,2.1-0.3,2.8-0.9s1-1.4,1-2.4c0-2.2-1.6-3.3-4.7-3.3h-1.4v-1.6h1.3c2.8,0,4.1-1,4.1-3.1c0-1.9-1.1-2.9-3.2-2.9
						c-1.2,0-2.3,0.4-3.3,1.2v-1.9c1.1-0.6,2.3-1,3.8-1c1.4,0,2.5,0.4,3.4,1.1s1.3,1.7,1.3,2.9c0,2.2-1.1,3.6-3.4,4.3l0,0
						c1.2,0.1,2.1,0.6,2.9,1.3S102.9,509.2,102.9,510.2z"/>
					<path d="M116.5,506.5c0,2.8-0.5,4.9-1.5,6.5c-1,1.6-2.4,2.3-4.2,2.3c-1.7,0-3-0.7-3.9-2.2s-1.4-3.5-1.4-6.2
						c0-2.9,0.5-5.2,1.4-6.7s2.4-2.3,4.2-2.3C114.7,497.9,116.5,500.8,116.5,506.5z M114.5,506.7c0-4.8-1.1-7.2-3.4-7.2
						c-2.4,0-3.6,2.4-3.6,7.3c0,4.5,1.2,6.8,3.5,6.8C113.4,513.7,114.5,511.3,114.5,506.7z"/>
					<path d="M121.4,513.9c0,0.4-0.1,0.7-0.4,0.9s-0.6,0.4-0.9,0.4c-0.4,0-0.7-0.1-0.9-0.4s-0.4-0.6-0.4-0.9c0-0.4,0.1-0.7,0.4-0.9
						s0.6-0.4,0.9-0.4c0.4,0,0.7,0.1,0.9,0.4S121.4,513.6,121.4,513.9z"/>
					<path d="M127.5,515v-14.5c-0.3,0.3-0.9,0.7-1.7,1.1s-1.5,0.7-2.2,0.9v-1.9c0.8-0.2,1.8-0.6,2.7-1.1s1.8-1,2.4-1.6h0.7V515
						H127.5z"/>
					<path d="M142.1,514.4c-0.9,0.6-2,0.8-3.3,0.8c-1.1,0-2.1-0.3-2.9-0.8s-1.5-1.2-2-2.1s-0.7-2-0.7-3.1c0-2,0.6-3.6,1.7-4.8
						s2.7-1.8,4.5-1.8c1,0,2,0.2,2.8,0.6v2c-0.9-0.6-1.9-0.9-2.9-0.9c-1.2,0-2.3,0.4-3,1.3s-1.2,2-1.2,3.4s0.4,2.5,1.1,3.3
						s1.7,1.2,3,1.2c1,0,2-0.3,3-1v1.9L142.1,514.4L142.1,514.4z"/>
					<path d="M162,515h-1.9v-6.9c0-1.3-0.2-2.3-0.6-2.9s-1.1-0.9-2.1-0.9c-0.8,0-1.5,0.4-2.1,1.1s-0.9,1.6-0.9,2.7v6.8h-1.9v-7.1
						c0-2.4-0.9-3.5-2.7-3.5c-0.8,0-1.5,0.4-2.1,1.1s-0.8,1.6-0.8,2.7v6.8H145v-12h1.9v1.9l0,0c0.9-1.5,2.1-2.2,3.7-2.2
						c0.8,0,1.5,0.2,2.1,0.7s1.1,1.1,1.3,1.8c0.9-1.7,2.2-2.5,4-2.5c2.6,0,4,1.6,4,4.9V515z"/>
				</g>
				<g class="st3">
					<path d="M4.2,423v-14.5c-0.3,0.3-0.9,0.7-1.7,1.1s-1.5,0.7-2.2,0.9v-1.9c0.8-0.2,1.8-0.6,2.7-1.1s1.8-1,2.4-1.6h0.7V423H4.2z"
						/>
					<path d="M20.1,417.9c0,1.6-0.5,2.9-1.6,3.9s-2.5,1.5-4.3,1.5c-1.6,0-2.7-0.2-3.5-0.7v-2c1.1,0.7,2.3,1.1,3.5,1.1s2.1-0.3,2.9-1
						s1.1-1.6,1.1-2.7s-0.4-2-1.1-2.6s-1.8-0.9-3.2-0.9c-1.1,0-2.1,0-2.8,0.1l0.6-8.4h7.8v1.7h-6.1l-0.3,4.9l1.5-0.1
						c1.8,0,3.1,0.4,4.1,1.3S20.1,416.3,20.1,417.9z"/>
					<path d="M25.6,421.9c0,0.4-0.1,0.7-0.4,0.9s-0.6,0.4-0.9,0.4c-0.4,0-0.7-0.1-0.9-0.4s-0.4-0.6-0.4-0.9c0-0.4,0.1-0.7,0.4-0.9
						s0.6-0.4,0.9-0.4c0.4,0,0.7,0.1,0.9,0.4S25.6,421.6,25.6,421.9z"/>
					<path d="M31.7,423v-14.5c-0.3,0.3-0.9,0.7-1.7,1.1s-1.5,0.7-2.2,0.9v-1.9c0.8-0.2,1.8-0.6,2.7-1.1s1.8-1,2.4-1.6h0.7V423H31.7z
						"/>
					<path d="M46.2,422.4c-0.9,0.6-2,0.8-3.3,0.8c-1.1,0-2.1-0.3-2.9-0.8s-1.5-1.2-2-2.1s-0.7-2-0.7-3.1c0-2,0.6-3.6,1.7-4.8
						s2.7-1.8,4.5-1.8c1,0,2,0.2,2.8,0.6v2c-0.9-0.6-1.9-0.9-2.9-0.9c-1.2,0-2.3,0.4-3,1.3s-1.2,2-1.2,3.4s0.4,2.5,1.1,3.3
						s1.7,1.2,3,1.2c1,0,2-0.3,3-1L46.2,422.4L46.2,422.4z"/>
					<path d="M66.2,423h-1.9v-6.9c0-1.3-0.2-2.3-0.6-2.9s-1.1-0.9-2.1-0.9c-0.8,0-1.5,0.4-2.1,1.1s-0.9,1.6-0.9,2.7v6.8h-1.9v-7.1
						c0-2.4-0.9-3.5-2.7-3.5c-0.8,0-1.5,0.4-2.1,1.1S51,415,51,416.2v6.8h-1.9v-12H51v1.9l0,0c0.9-1.5,2.1-2.2,3.7-2.2
						c0.8,0,1.5,0.2,2.1,0.7s1.1,1.1,1.3,1.8c0.9-1.7,2.2-2.5,4-2.5c2.6,0,4,1.6,4,4.9L66.2,423L66.2,423z"/>
				</g>
				<g class="st3">
					<path d="M4.2,21V6.5C3.9,6.8,3.3,7.2,2.5,7.6S1,8.3,0.3,8.5v-2C1.2,6.3,2.1,5.9,3,5.4s1.8-1,2.4-1.6h0.7V21H4.2z"/>
					<path d="M20.1,15.9c0,1.6-0.5,2.9-1.6,3.9s-2.5,1.5-4.3,1.5c-1.6,0-2.7-0.2-3.5-0.7v-2c1.1,0.7,2.3,1.1,3.5,1.1s2.1-0.3,2.9-1
						s1.1-1.6,1.1-2.7s-0.4-2-1.1-2.6s-1.8-0.9-3.2-0.9c-1.1,0-2.1,0-2.8,0.1l0.6-8.4h7.8v1.7h-6.1l-0.3,4.9l1.5-0.1
						c1.8,0,3.1,0.4,4.1,1.3S20.1,14.3,20.1,15.9z"/>
					<path d="M25.6,19.9c0,0.4-0.1,0.7-0.4,0.9s-0.6,0.4-0.9,0.4c-0.4,0-0.7-0.1-0.9-0.4S23,20.3,23,19.9s0.1-0.7,0.4-0.9
						s0.6-0.4,0.9-0.4c0.4,0,0.7,0.1,0.9,0.4S25.6,19.6,25.6,19.9z"/>
					<path d="M31.7,21V6.5c-0.3,0.3-0.9,0.7-1.7,1.1s-1.5,0.7-2.2,0.9v-2c0.8-0.2,1.8-0.6,2.7-1.1s1.8-1,2.4-1.6h0.7V21H31.7z"/>
					<path d="M46.2,20.4c-0.9,0.6-2,0.8-3.3,0.8c-1.1,0-2.1-0.3-2.9-0.8s-1.5-1.2-2-2.1s-0.7-2-0.7-3.1c0-2,0.6-3.6,1.7-4.8
						s2.7-1.8,4.5-1.8c1,0,2,0.2,2.8,0.6v2c-0.9-0.6-1.9-0.9-2.9-0.9c-1.2,0-2.3,0.4-3,1.3s-1.2,2-1.2,3.4s0.4,2.5,1.1,3.3
						s1.7,1.2,3,1.2c1,0,2-0.3,3-1L46.2,20.4L46.2,20.4z"/>
					<path d="M66.2,21h-1.9v-6.9c0-1.3-0.2-2.3-0.6-2.9s-1.1-0.9-2.1-0.9c-0.8,0-1.5,0.4-2.1,1.1s-0.9,1.6-0.9,2.7V21h-1.9v-7.1
						c0-2.4-0.9-3.5-2.7-3.5c-0.8,0-1.5,0.4-2.1,1.1S51,13,51,14.2V21h-1.9V9H51v1.9l0,0c0.9-1.5,2.1-2.2,3.7-2.2
						c0.8,0,1.5,0.2,2.1,0.7s1.1,1.1,1.3,1.8c0.9-1.7,2.2-2.5,4-2.5c2.6,0,4,1.6,4,4.9L66.2,21L66.2,21z"/>
				</g>
				<g class="st3">
					<path d="M273.6,216.2c0,1.5-0.5,2.7-1.6,3.7s-2.5,1.4-4.3,1.4c-1.6,0-2.9-0.3-3.8-0.9v-2.1c1.1,0.9,2.4,1.3,3.9,1.3
						c1.2,0,2.1-0.3,2.8-0.9s1-1.4,1-2.4c0-2.2-1.6-3.3-4.7-3.3h-1.4v-1.6h1.3c2.8,0,4.1-1,4.1-3.1c0-1.9-1.1-2.9-3.2-2.9
						c-1.2,0-2.3,0.4-3.3,1.2v-1.9c1.1-0.6,2.3-1,3.8-1c1.4,0,2.5,0.4,3.4,1.1s1.3,1.7,1.3,2.9c0,2.2-1.1,3.6-3.4,4.3l0,0
						c1.2,0.1,2.1,0.6,2.9,1.3S273.6,215.2,273.6,216.2z"/>
					<path d="M287.2,212.5c0,2.8-0.5,4.9-1.5,6.5s-2.4,2.3-4.2,2.3c-1.7,0-3-0.7-3.9-2.2s-1.4-3.5-1.4-6.2c0-2.9,0.5-5.2,1.4-6.7
						s2.4-2.3,4.2-2.3C285.4,203.9,287.2,206.8,287.2,212.5z M285.2,212.7c0-4.8-1.1-7.2-3.4-7.2c-2.4,0-3.6,2.4-3.6,7.3
						c0,4.5,1.2,6.8,3.5,6.8C284.1,219.7,285.2,217.3,285.2,212.7z"/>
					<path d="M292.1,219.9c0,0.4-0.1,0.7-0.4,0.9s-0.6,0.4-0.9,0.4c-0.4,0-0.7-0.1-0.9-0.4s-0.4-0.6-0.4-0.9c0-0.4,0.1-0.7,0.4-0.9
						s0.6-0.4,0.9-0.4c0.4,0,0.7,0.1,0.9,0.4S292.1,219.6,292.1,219.9z"/>
					<path d="M298.2,221v-14.5c-0.3,0.3-0.9,0.7-1.7,1.1s-1.5,0.7-2.2,0.9v-1.9c0.8-0.2,1.8-0.6,2.7-1.1s1.8-1,2.4-1.6h0.7V221
						H298.2z"/>
					<path d="M312.8,220.4c-0.9,0.6-2,0.8-3.3,0.8c-1.1,0-2.1-0.3-2.9-0.8s-1.5-1.2-2-2.1s-0.7-2-0.7-3.1c0-2,0.6-3.6,1.7-4.8
						s2.7-1.8,4.5-1.8c1,0,2,0.2,2.8,0.6v2c-0.9-0.6-1.9-0.9-2.9-0.9c-1.2,0-2.3,0.4-3,1.3s-1.2,2-1.2,3.4s0.4,2.5,1.1,3.3
						s1.7,1.2,3,1.2c1,0,2-0.3,3-1v1.9L312.8,220.4L312.8,220.4z"/>
					<path d="M332.7,221h-1.9v-6.9c0-1.3-0.2-2.3-0.6-2.9s-1.1-0.9-2.1-0.9c-0.8,0-1.5,0.4-2.1,1.1s-0.9,1.6-0.9,2.7v6.8h-1.9v-7.1
						c0-2.4-0.9-3.5-2.7-3.5c-0.8,0-1.5,0.4-2.1,1.1s-0.8,1.6-0.8,2.7v6.8h-1.9v-12h1.9v1.9l0,0c0.9-1.5,2.1-2.2,3.7-2.2
						c0.8,0,1.5,0.2,2.1,0.7s1.1,1.1,1.3,1.8c0.9-1.7,2.2-2.5,4-2.5c2.6,0,4,1.6,4,4.9V221z"/>
				</g>
				<g class="st3">
					<path d="M101,569.6c0,3.1-0.6,5.5-1.8,7.2s-2.9,2.5-5,2.5c-1.1,0-2.1-0.2-2.9-0.6v-1.8c0.9,0.5,1.9,0.8,3,0.8
						c1.5,0,2.7-0.6,3.6-1.8s1.3-3,1.3-5.2l0,0c-0.7,1.4-2,2.2-3.8,2.2c-1.4,0-2.6-0.5-3.5-1.5s-1.4-2.2-1.4-3.8s0.5-3,1.5-4
						s2.3-1.6,3.9-1.6c1.7,0,3,0.7,3.9,2S101,567.1,101,569.6z M98.9,567.9c0-1.3-0.3-2.3-0.9-3.1s-1.4-1.2-2.4-1.2
						c-0.9,0-1.7,0.4-2.3,1.1s-0.9,1.6-0.9,2.7c0,1.2,0.3,2.1,0.9,2.8s1.4,1,2.5,1c0.9,0,1.6-0.3,2.3-0.9S98.9,568.8,98.9,567.9z"/>
					<path d="M106.1,577.9c0,0.4-0.1,0.7-0.4,0.9s-0.6,0.4-0.9,0.4c-0.4,0-0.7-0.1-0.9-0.4s-0.4-0.6-0.4-0.9c0-0.4,0.1-0.7,0.4-0.9
						s0.6-0.4,0.9-0.4c0.4,0,0.7,0.1,0.9,0.4S106.1,577.6,106.1,577.9z"/>
					<path d="M108.4,574.3c0-1,0.3-1.8,0.9-2.7s1.3-1.4,2.2-1.8c-0.7-0.4-1.3-0.9-1.7-1.6s-0.6-1.3-0.6-2.1c0-1.2,0.4-2.2,1.3-3.1
						s2-1.2,3.4-1.2c0.9,0,1.7,0.2,2.4,0.6s1.3,0.9,1.7,1.5s0.6,1.4,0.6,2.2s-0.2,1.5-0.6,2.1s-1,1.2-1.7,1.6
						c0.9,0.4,1.7,0.9,2.2,1.8s0.9,1.7,0.9,2.7c0,1.5-0.5,2.7-1.5,3.6s-2.3,1.4-3.9,1.4c-1,0-2-0.2-2.8-0.6s-1.5-1-1.9-1.8
						S108.4,575.3,108.4,574.3z M110.5,574.1c0,1,0.3,1.9,0.9,2.5s1.4,0.9,2.5,0.9c1,0,1.8-0.3,2.4-0.9s1-1.5,1-2.5s-0.3-1.8-1-2.4
						s-1.4-1-2.4-1s-1.8,0.3-2.4,1S110.5,573.2,110.5,574.1z M111.1,566.4c0,0.8,0.3,1.5,0.8,2s1.2,0.8,2,0.8s1.4-0.3,2-0.8
						s0.8-1.2,0.8-2s-0.3-1.5-0.8-2s-1.2-0.8-2-0.8s-1.4,0.3-2,0.8S111.1,565.5,111.1,566.4z"/>
					<path d="M124.2,579h-1.9v-17.8h1.9V579z"/>
					<path d="M139.1,572.6c0,2-0.5,3.6-1.5,4.8s-2.3,1.8-4,1.8c-1.6,0-2.8-0.7-3.6-2l0,0v1.7h-2v-17.8h1.9v7.9l0,0
						c0.9-1.6,2.3-2.4,4.1-2.4c1.5,0,2.7,0.5,3.6,1.6S139.1,570.8,139.1,572.6z M137.1,572.6c0-1.3-0.3-2.3-0.9-3.1
						s-1.4-1.2-2.5-1.2s-2,0.4-2.7,1.1s-1,1.7-1,2.9v1.7c0,1,0.3,1.9,1,2.5s1.5,1,2.4,1c1.2,0,2.1-0.4,2.7-1.3
						S137.1,574.2,137.1,572.6z"/>
					<path d="M148.6,575.8c0,1-0.4,1.9-1.2,2.5s-1.9,1-3.2,1c-1.1,0-2.1-0.2-3-0.7v-2.1c0.9,0.8,2,1.1,3.1,1.1
						c1.5,0,2.3-0.6,2.3-1.7c0-0.5-0.1-0.8-0.4-1.1s-1-0.7-2-1.2c-1.1-0.5-1.8-0.9-2.2-1.5s-0.7-1.2-0.7-2.1c0-1,0.4-1.8,1.2-2.5
						s1.8-1,3-1c0.9,0,1.8,0.2,2.6,0.6v1.9c-0.8-0.6-1.7-0.9-2.7-0.9c-0.6,0-1.1,0.2-1.5,0.5s-0.6,0.7-0.6,1.2s0.1,0.9,0.4,1.2
						s0.9,0.6,1.8,1c1.1,0.5,1.9,1,2.4,1.5S148.6,575,148.6,575.8z"/>
				</g>
			</g>
		</g>
	</g>
</g>
</svg>
