<?xml version="1.0" encoding="utf-8"?>
<!-- Generator: Adobe Illustrator 25.1.0, SVG Export Plug-In . SVG Version: 6.00 Build 0)  -->
<svg version="1.1" id="Layer_1" xmlns="http://www.w3.org/2000/svg" xmlns:xlink="http://www.w3.org/1999/xlink" x="0px" y="0px"
	 viewBox="0 0 128 128" style="enable-background:new 0 0 128 128;" xml:space="preserve">
<style type="text/css">
	.st0{fill:#FFFFFF;}
	.st1{fill:none;}
</style>
<rect x="0.5" class="st0" width="128" height="128"/>
<g id="Ultra_HDMI_Cable" transform="translate(0.168 0.031)">
	<rect id="Conteiner" x="-0.2" y="0" class="st1" width="128" height="128"/>
	<path id="Path_887" d="M87.4,30.1h-8V14.2H47.7v15.9h-8v63.6h19.9v19.9h8V93.7h19.9L87.4,30.1z M55.6,22.1h15.9v8H55.6V22.1z
		 M79.5,85.7H47.7V38h31.8L79.5,85.7z"/>
	<path id="Path_888" d="M59.6,77.8h8c2.2,0,4-1.8,4-4c0-2.2-1.8-4-4-4h-8c-2.2,0-4,1.8-4,4C55.6,76,57.4,77.8,59.6,77.8z"/>
</g>
</svg>
