<?xml version="1.0" encoding="utf-8"?>
<!-- Generator: Adobe Illustrator 25.1.0, SVG Export Plug-In . SVG Version: 6.00 Build 0)  -->
<svg version="1.1" id="Layer_1" xmlns="http://www.w3.org/2000/svg" xmlns:xlink="http://www.w3.org/1999/xlink" x="0px" y="0px"
	 viewBox="0 0 414 591" style="enable-background:new 0 0 414 591;" xml:space="preserve">
<style type="text/css">
	.st0{fill:#FFFFFF;}
	.st1{fill:none;stroke:#231F20;stroke-linecap:round;stroke-linejoin:round;}
	.st2{fill:#231F20;}
	.st3{stroke:#707070;}
	.st4{enable-background:new    ;}
</style>
<rect x="2" y="1" class="st0" width="410" height="590"/>
<g>
	<g>
		<g id="Mask_Group_20" transform="translate(-961 -8362)">
			<g id="S" transform="translate(1061.152 8392)">
				<g id="Group_556" transform="translate(14.137 60.471)">
					<path id="Path_1235" class="st1" d="M0,0v278.2l110.2,34.6V30.1L0,0z"/>
					<path id="Path_1236" class="st1" d="M167.3,14.6v280.1l-57,18.1V30.1L167.3,14.6z"/>
				</g>
				<g id="Group_564" transform="translate(14.137 45.343)">
					<path id="Path_1237" class="st1" d="M167.2,29.5l-56.6,16L0,15.1L57.2,0L167.2,29.5z"/>
					<g id="Group_563" transform="translate(7.78 1.972)">
						<g id="Group_557" transform="translate(0 12.128)">
							<path id="Path_1238" class="st1" d="M6.4,0.3c1.5,0.4,1.4,1-0.1,1.4C4.5,2.1,2.7,2.1,1,1.7c-1.4-0.4-1.4-1,0.1-1.4
								C2.9-0.1,4.7-0.1,6.4,0.3z"/>
							<path id="Path_1239" class="st1" d="M15.4,2.7c1.5,0.4,1.4,1-0.1,1.4c-1.8,0.4-3.6,0.4-5.3,0c-1.5-0.4-1.4-1,0.1-1.4
								C11.8,2.3,13.6,2.3,15.4,2.7z"/>
							<path id="Path_1240" class="st1" d="M24.3,5.2c1.5,0.4,1.4,1-0.1,1.4c-1.8,0.4-3.6,0.4-5.3,0c-1.5-0.4-1.4-1,0.1-1.4
								C20.7,4.8,22.5,4.8,24.3,5.2z"/>
							<path id="Path_1241" class="st1" d="M33.2,7.6c1.5,0.4,1.4,1,0,1.4c-1.8,0.4-3.6,0.4-5.3,0c-1.5-0.4-1.4-1,0-1.4
								C29.7,7.2,31.5,7.2,33.2,7.6z"/>
							<path id="Path_1242" class="st1" d="M42.2,10.1c1.5,0.4,1.4,1,0,1.5c-1.8,0.4-3.6,0.4-5.3,0c-1.5-0.4-1.4-1.1,0-1.5
								C38.6,9.7,40.4,9.7,42.2,10.1z"/>
							<path id="Path_1243" class="st1" d="M51.2,12.6c1.5,0.4,1.4,1.1,0,1.5c-1.8,0.4-3.6,0.4-5.3,0c-1.5-0.4-1.4-1.1,0-1.5
								C47.6,12.2,49.4,12.2,51.2,12.6z"/>
							<path id="Path_1244" class="st1" d="M60.2,15c1.5,0.4,1.5,1.1,0,1.5c-1.8,0.4-3.6,0.4-5.3,0c-1.5-0.4-1.5-1.1,0-1.5
								C56.6,14.6,58.4,14.6,60.2,15z"/>
							<path id="Path_1245" class="st1" d="M69.2,17.5c1.5,0.4,1.5,1.1,0,1.5c-1.8,0.4-3.6,0.4-5.3,0c-1.5-0.4-1.5-1.1,0-1.5
								C65.6,17.1,67.4,17.1,69.2,17.5z"/>
							<path id="Path_1246" class="st1" d="M78.2,20c1.5,0.4,1.5,1.1,0,1.5c-1.8,0.4-3.6,0.4-5.3,0c-1.5-0.4-1.5-1.1,0-1.5
								C74.6,19.6,76.5,19.6,78.2,20z"/>
							<path id="Path_1247" class="st1" d="M87.3,22.4c1.5,0.4,1.5,1.1,0,1.5c-1.8,0.4-3.6,0.4-5.4,0c-1.5-0.4-1.5-1.1,0-1.5
								C83.7,22,85.5,22,87.3,22.4z"/>
							<path id="Path_1248" class="st1" d="M96.3,24.9c1.5,0.4,1.5,1.1,0,1.5c-1.8,0.4-3.6,0.4-5.4,0c-1.5-0.4-1.5-1.1,0-1.5
								C92.7,24.5,94.6,24.5,96.3,24.9z"/>
							<path id="Path_1249" class="st1" d="M105.4,27.4c1.5,0.4,1.5,1.1,0,1.5c-1.8,0.4-3.6,0.4-5.4,0c-1.5-0.4-1.5-1.1,0-1.5
								C101.8,27,103.6,27,105.4,27.4z"/>
						</g>
						<g id="Group_558" transform="translate(9.128 9.69)">
							<path id="Path_1250" class="st1" d="M6.4,0.3c1.4,0.4,1.4,1-0.1,1.4C4.6,2.1,2.7,2.1,1,1.7c-1.4-0.4-1.4-1,0.1-1.4
								C2.9-0.1,4.7-0.1,6.4,0.3z"/>
							<path id="Path_1251" class="st1" d="M15.3,2.7c1.5,0.4,1.4,1-0.1,1.4c-1.7,0.4-3.6,0.4-5.3,0c-1.5-0.4-1.4-1,0.1-1.4
								C11.8,2.3,13.6,2.3,15.3,2.7z"/>
							<path id="Path_1252" class="st1" d="M24.3,5.2c1.5,0.4,1.4,1,0,1.4C22.5,7,20.7,7,19,6.6c-1.5-0.4-1.4-1,0-1.4
								C20.7,4.8,22.5,4.8,24.3,5.2z"/>
							<path id="Path_1253" class="st1" d="M33.2,7.6c1.5,0.4,1.4,1,0,1.4c-1.8,0.4-3.6,0.4-5.3,0c-1.5-0.4-1.4-1,0-1.4
								C29.6,7.2,31.5,7.2,33.2,7.6z"/>
							<path id="Path_1254" class="st1" d="M42.2,10.1c1.5,0.4,1.4,1,0,1.4c-1.8,0.4-3.6,0.4-5.3,0c-1.5-0.4-1.4-1,0-1.4
								C38.6,9.7,40.4,9.7,42.2,10.1z"/>
							<path id="Path_1255" class="st1" d="M51.1,12.5c1.5,0.4,1.5,1,0,1.5c-1.8,0.4-3.6,0.4-5.3,0c-1.5-0.4-1.4-1.1,0-1.5
								C47.6,12.1,49.4,12.1,51.1,12.5z"/>
							<path id="Path_1256" class="st1" d="M60.1,15c1.5,0.4,1.5,1.1,0,1.5c-1.8,0.4-3.6,0.4-5.3,0c-1.5-0.4-1.5-1.1,0-1.5
								C56.6,14.6,58.4,14.6,60.1,15z"/>
							<path id="Path_1257" class="st1" d="M69.2,17.4c1.5,0.4,1.5,1.1,0,1.5c-1.8,0.4-3.6,0.4-5.3,0c-1.5-0.4-1.5-1.1,0-1.5
								C65.6,17,67.4,17,69.2,17.4z"/>
							<path id="Path_1258" class="st1" d="M78.2,19.9c1.5,0.4,1.5,1.1,0,1.5c-1.8,0.4-3.6,0.4-5.3,0c-1.5-0.4-1.5-1.1,0-1.5
								C74.6,19.5,76.4,19.5,78.2,19.9z"/>
							<path id="Path_1259" class="st1" d="M87.2,22.4c1.5,0.4,1.5,1.1,0,1.5c-1.8,0.4-3.6,0.4-5.3,0c-1.5-0.4-1.5-1.1,0-1.5
								C83.6,22,85.5,22,87.2,22.4z"/>
							<path id="Path_1260" class="st1" d="M96.3,24.9c1.5,0.4,1.5,1.1,0,1.5c-1.8,0.4-3.6,0.4-5.3,0c-1.5-0.4-1.5-1.1,0-1.5
								C92.7,24.5,94.5,24.5,96.3,24.9z"/>
							<path id="Path_1261" class="st1" d="M105.4,27.3c1.5,0.4,1.5,1.1,0,1.5c-1.8,0.4-3.6,0.4-5.4,0c-1.5-0.4-1.5-1.1,0-1.5
								C101.8,26.9,103.6,26.9,105.4,27.3z"/>
						</g>
						<g id="Group_559" transform="translate(18.231 7.257)">
							<path id="Path_1262" class="st1" d="M6.4,0.3c1.4,0.4,1.4,1-0.1,1.4C4.6,2.1,2.7,2.1,1,1.7c-1.4-0.4-1.4-1,0.1-1.4
								C2.9-0.1,4.7-0.1,6.4,0.3z"/>
							<path id="Path_1263" class="st1" d="M15.3,2.7c1.5,0.4,1.4,1,0,1.4c-1.7,0.4-3.6,0.4-5.3,0c-1.5-0.4-1.4-1,0-1.4
								C11.8,2.3,13.6,2.3,15.3,2.7z"/>
							<path id="Path_1264" class="st1" d="M24.3,5.2c1.5,0.4,1.4,1,0,1.4C22.6,7,20.7,7,19,6.6c-1.5-0.4-1.4-1,0-1.4
								C20.7,4.8,22.5,4.8,24.3,5.2z"/>
							<path id="Path_1265" class="st1" d="M33.2,7.6c1.5,0.4,1.4,1,0,1.4c-1.7,0.4-3.6,0.4-5.3,0c-1.5-0.4-1.4-1,0-1.4
								C29.6,7.2,31.4,7.2,33.2,7.6z"/>
							<path id="Path_1266" class="st1" d="M42.1,10c1.5,0.4,1.4,1,0,1.4c-1.7,0.4-3.6,0.4-5.3,0c-1.5-0.4-1.4-1,0-1.4
								C38.6,9.6,40.4,9.6,42.1,10z"/>
							<path id="Path_1267" class="st1" d="M51.1,12.5c1.5,0.4,1.5,1,0,1.4c-1.8,0.4-3.6,0.4-5.3,0c-1.5-0.4-1.5-1,0-1.4
								C47.5,12.1,49.4,12.1,51.1,12.5z"/>
							<path id="Path_1268" class="st1" d="M60.1,15c1.5,0.4,1.5,1,0,1.5c-1.8,0.4-3.6,0.4-5.3,0c-1.5-0.4-1.5-1,0-1.5
								C56.5,14.5,58.4,14.5,60.1,15z"/>
							<path id="Path_1269" class="st1" d="M69.1,17.4c1.5,0.4,1.5,1.1,0,1.5c-1.8,0.4-3.6,0.4-5.3,0c-1.5-0.4-1.5-1.1,0-1.5
								C65.5,17,67.4,17,69.1,17.4z"/>
							<path id="Path_1270" class="st1" d="M78.1,19.9c1.5,0.4,1.5,1.1,0,1.5c-1.8,0.4-3.6,0.4-5.3,0c-1.5-0.4-1.5-1.1,0-1.5
								C74.6,19.5,76.4,19.5,78.1,19.9z"/>
							<path id="Path_1271" class="st1" d="M87.2,22.3c1.5,0.4,1.5,1.1,0,1.5c-1.8,0.4-3.6,0.4-5.3,0c-1.5-0.4-1.5-1.1,0-1.5
								C83.6,21.9,85.4,21.9,87.2,22.3z"/>
							<path id="Path_1272" class="st1" d="M96.2,24.8c1.5,0.4,1.5,1.1,0,1.5c-1.8,0.4-3.6,0.4-5.3,0c-1.5-0.4-1.5-1.1,0-1.5
								C92.7,24.4,94.5,24.4,96.2,24.8z"/>
							<path id="Path_1273" class="st1" d="M105.3,27.3c1.5,0.4,1.5,1.1,0,1.5c-1.8,0.4-3.6,0.4-5.3,0c-1.5-0.4-1.5-1.1,0-1.5
								C101.7,26.9,103.5,26.9,105.3,27.3z"/>
						</g>
						<g id="Group_560" transform="translate(27.309 4.832)">
							<path id="Path_1274" class="st1" d="M6.4,0.3c1.4,0.4,1.4,1,0,1.4c-1.7,0.4-3.6,0.4-5.3,0c-1.4-0.4-1.4-1,0-1.4
								C2.9-0.1,4.7-0.1,6.4,0.3z"/>
							<path id="Path_1275" class="st1" d="M15.3,2.7c1.5,0.4,1.4,1,0,1.4c-1.7,0.4-3.6,0.4-5.3,0c-1.5-0.4-1.4-1,0-1.4
								C11.8,2.3,13.6,2.3,15.3,2.7z"/>
							<path id="Path_1276" class="st1" d="M24.2,5.2c1.5,0.4,1.4,1,0,1.4c-1.7,0.4-3.6,0.4-5.3,0c-1.5-0.4-1.4-1,0-1.4
								C20.7,4.8,22.5,4.8,24.2,5.2z"/>
							<path id="Path_1277" class="st1" d="M33.2,7.6c1.5,0.4,1.4,1,0,1.4c-1.7,0.4-3.6,0.4-5.3,0c-1.5-0.4-1.4-1,0-1.4
								C29.6,7.2,31.4,7.2,33.2,7.6z"/>
							<path id="Path_1278" class="st1" d="M42.1,10c1.5,0.4,1.5,1,0,1.4c-1.7,0.4-3.6,0.4-5.3,0c-1.5-0.4-1.4-1,0-1.4
								C38.6,9.6,40.4,9.6,42.1,10z"/>
							<path id="Path_1279" class="st1" d="M51.1,12.5c1.5,0.4,1.5,1,0,1.4c-1.7,0.4-3.6,0.4-5.3,0c-1.5-0.4-1.5-1,0-1.4
								C47.5,12.1,49.3,12.1,51.1,12.5z"/>
							<path id="Path_1280" class="st1" d="M60.1,14.9c1.5,0.4,1.5,1,0,1.4c-1.7,0.4-3.6,0.4-5.3,0c-1.5-0.4-1.5-1,0-1.4
								C56.5,14.5,58.3,14.5,60.1,14.9z"/>
							<path id="Path_1281" class="st1" d="M69.1,17.4c1.5,0.4,1.5,1,0,1.5c-1.8,0.4-3.6,0.4-5.3,0c-1.5-0.4-1.5-1,0-1.5
								C65.5,17,67.3,17,69.1,17.4z"/>
							<path id="Path_1282" class="st1" d="M78.1,19.8c1.5,0.4,1.5,1.1,0,1.5c-1.8,0.4-3.6,0.4-5.3,0c-1.5-0.4-1.5-1.1,0-1.5
								C74.5,19.4,76.3,19.4,78.1,19.8z"/>
							<path id="Path_1283" class="st1" d="M87.1,22.3c1.5,0.4,1.5,1.1,0,1.5c-1.8,0.4-3.6,0.4-5.3,0c-1.5-0.4-1.5-1.1,0-1.5
								C83.6,21.9,85.4,21.9,87.1,22.3z"/>
							<path id="Path_1284" class="st1" d="M96.2,24.8c1.5,0.4,1.5,1.1,0,1.5c-1.8,0.4-3.6,0.4-5.3,0c-1.5-0.4-1.5-1.1,0-1.5
								C92.6,24.4,94.4,24.4,96.2,24.8z"/>
							<path id="Path_1285" class="st1" d="M105.2,27.2c1.5,0.4,1.5,1.1,0,1.5c-1.8,0.4-3.6,0.4-5.3,0c-1.5-0.4-1.5-1.1,0-1.5
								C101.7,26.8,103.5,26.8,105.2,27.2z"/>
						</g>
						<g id="Group_561" transform="translate(36.363 2.413)">
							<path id="Path_1286" class="st1" d="M6.4,0.3c1.4,0.4,1.4,1,0,1.4c-1.7,0.4-3.5,0.4-5.3,0c-1.4-0.4-1.4-1,0-1.4
								C2.9-0.1,4.7-0.1,6.4,0.3z"/>
							<path id="Path_1287" class="st1" d="M15.3,2.7c1.5,0.4,1.4,1,0,1.4c-1.7,0.4-3.5,0.4-5.3,0c-1.5-0.4-1.4-1,0-1.4
								C11.8,2.3,13.6,2.3,15.3,2.7z"/>
							<path id="Path_1288" class="st1" d="M24.2,5.1c1.5,0.4,1.4,1,0,1.4c-1.7,0.4-3.6,0.4-5.3,0c-1.5-0.4-1.4-1,0-1.4
								C20.7,4.7,22.5,4.7,24.2,5.1z"/>
							<path id="Path_1289" class="st1" d="M33.1,7.6c1.5,0.4,1.4,1,0,1.4c-1.7,0.4-3.6,0.4-5.3,0c-1.5-0.4-1.4-1,0-1.4
								C29.6,7.2,31.4,7.2,33.1,7.6z"/>
							<path id="Path_1290" class="st1" d="M42.1,10c1.5,0.4,1.5,1,0,1.4c-1.7,0.4-3.6,0.4-5.3,0c-1.5-0.4-1.5-1,0-1.4
								C38.5,9.6,40.3,9.6,42.1,10z"/>
							<path id="Path_1291" class="st1" d="M51.1,12.4c1.5,0.4,1.5,1,0,1.4c-1.7,0.4-3.6,0.4-5.3,0c-1.5-0.4-1.5-1,0-1.4
								C47.5,12,49.3,12,51.1,12.4z"/>
							<path id="Path_1292" class="st1" d="M60,14.9c1.5,0.4,1.5,1,0,1.4c-1.7,0.4-3.6,0.4-5.3,0c-1.5-0.4-1.5-1,0-1.4
								C56.5,14.5,58.3,14.5,60,14.9z"/>
							<path id="Path_1293" class="st1" d="M69,17.3c1.5,0.4,1.5,1,0,1.4c-1.7,0.4-3.6,0.4-5.3,0c-1.5-0.4-1.5-1,0-1.4
								C65.5,16.9,67.3,16.9,69,17.3z"/>
							<path id="Path_1294" class="st1" d="M78,19.8c1.5,0.4,1.5,1,0,1.5c-1.7,0.4-3.6,0.4-5.3,0c-1.5-0.4-1.5-1,0-1.5
								C74.5,19.4,76.3,19.4,78,19.8z"/>
							<path id="Path_1295" class="st1" d="M87.1,22.2c1.5,0.4,1.5,1.1,0,1.5c-1.8,0.4-3.6,0.4-5.3,0c-1.5-0.4-1.5-1.1,0-1.5
								C83.5,21.8,85.3,21.8,87.1,22.2z"/>
							<path id="Path_1296" class="st1" d="M96.1,24.7c1.5,0.4,1.5,1.1,0,1.5c-1.8,0.4-3.6,0.4-5.3,0c-1.5-0.4-1.5-1.1,0-1.5
								C92.6,24.3,94.4,24.3,96.1,24.7z"/>
							<path id="Path_1297" class="st1" d="M105.2,27.2c1.5,0.4,1.5,1.1,0,1.5c-1.8,0.4-3.6,0.4-5.3,0c-1.5-0.4-1.5-1.1,0-1.5
								C101.6,26.8,103.4,26.8,105.2,27.2z"/>
						</g>
						<g id="Group_562" transform="translate(45.392)">
							<path id="Path_1298" class="st1" d="M6.4,0.3c1.4,0.4,1.4,1,0,1.4c-1.7,0.4-3.5,0.4-5.3,0c-1.4-0.4-1.4-1,0-1.4
								C2.8-0.1,4.6-0.1,6.4,0.3z"/>
							<path id="Path_1299" class="st1" d="M15.3,2.7c1.4,0.4,1.4,1,0,1.4c-1.7,0.4-3.5,0.4-5.3,0c-1.4-0.4-1.4-1,0-1.4
								C11.7,2.3,13.5,2.3,15.3,2.7z"/>
							<path id="Path_1300" class="st1" d="M24.2,5.1c1.5,0.4,1.4,1,0,1.4c-1.7,0.4-3.5,0.4-5.3,0c-1.5-0.4-1.4-1,0-1.4
								C20.6,4.7,22.5,4.7,24.2,5.1z"/>
							<path id="Path_1301" class="st1" d="M33.1,7.6c1.5,0.4,1.4,1,0,1.4c-1.7,0.4-3.5,0.4-5.3,0c-1.5-0.4-1.4-1,0-1.4
								C29.6,7.2,31.4,7.2,33.1,7.6z"/>
							<path id="Path_1302" class="st1" d="M42.1,10c1.5,0.4,1.5,1,0,1.4c-1.7,0.4-3.6,0.4-5.3,0c-1.5-0.4-1.5-1,0-1.4
								C38.5,9.6,40.3,9.6,42.1,10z"/>
							<path id="Path_1303" class="st1" d="M51,12.4c1.5,0.4,1.5,1,0,1.4c-1.7,0.4-3.6,0.4-5.3,0c-1.5-0.4-1.5-1,0-1.4
								C47.5,12,49.3,12,51,12.4z"/>
							<path id="Path_1304" class="st1" d="M60,14.8c1.5,0.4,1.5,1,0,1.4c-1.7,0.4-3.6,0.4-5.3,0c-1.5-0.4-1.5-1,0-1.4
								C56.4,14.5,58.3,14.5,60,14.8z"/>
							<path id="Path_1305" class="st1" d="M69,17.3c1.5,0.4,1.5,1,0,1.4c-1.7,0.4-3.6,0.4-5.3,0c-1.5-0.4-1.5-1,0-1.4
								C65.4,16.9,67.2,16.9,69,17.3z"/>
							<path id="Path_1306" class="st1" d="M78,19.7c1.5,0.4,1.5,1,0,1.4c-1.7,0.4-3.6,0.4-5.3,0c-1.5-0.4-1.5-1,0-1.4
								C74.4,19.3,76.3,19.3,78,19.7z"/>
							<path id="Path_1307" class="st1" d="M87,22.2c1.5,0.4,1.5,1,0,1.4c-1.7,0.4-3.6,0.4-5.3,0c-1.5-0.4-1.5-1,0-1.4
								C83.5,21.8,85.3,21.8,87,22.2z"/>
							<path id="Path_1308" class="st1" d="M96.1,24.6c1.5,0.4,1.5,1,0,1.5c-1.7,0.4-3.6,0.4-5.3,0c-1.5-0.4-1.5-1.1,0-1.5
								C92.5,24.2,94.3,24.2,96.1,24.6z"/>
							<path id="Path_1309" class="st1" d="M105.1,27.1c1.5,0.4,1.5,1.1,0,1.5c-1.8,0.4-3.6,0.4-5.3,0c-1.5-0.4-1.5-1.1,0-1.5
								C101.6,26.7,103.4,26.7,105.1,27.1z"/>
						</g>
					</g>
				</g>
				<line id="Line_23" class="st1" x1="195" y1="75.7" x2="195" y2="347.9"/>
				<g id="Group_565" transform="translate(134.606 99.615)">
					<path id="Path_1310" class="st2" d="M1.8,1.7L1.8,1.7L1.8,1.7c-2.1,2.1-2.4,5.4-0.6,7.8l0,0l0,0l0,0C0.8,8.1,3.1,4.7,4.3,3.3
						l0,0l0,0C2.3,1.3,1.8,1.7,1.8,1.7"/>
					<path id="Path_1311" class="st2" d="M10.1,1.7L10.1,1.7L10.1,1.7c2.1,2.1,2.4,5.4,0.6,7.8l0,0l0,0c0.5-1.4-1.9-4.8-3.1-6.2l0,0
						l0,0C9.6,1.3,10.1,1.7,10.1,1.7"/>
					<path id="Path_1312" class="st2" d="M5.9,0C7,0,8.1,0.3,9,0.9l0,0l0,0C7.9,0.7,6.1,1.7,5.9,1.8l0,0l0,0c-0.4-0.3-2-1.1-3-0.9
						l0,0l0,0l0,0C3.8,0.3,4.8,0,5.9,0"/>
					<path id="Path_1313" class="st2" d="M5.9,4.8L5.9,4.8c1.8,1.4,4.8,4.7,3.9,5.6l0,0c-2.2,2-5.6,2-7.8,0l0,0
						C1.1,9.5,4.1,6.1,5.9,4.8L5.9,4.8"/>
				</g>
				<g id="Group_567" transform="translate(0 0)">
					<line id="Line_24" class="st1" x1="14.1" y1="47.5" x2="56.1" y2="36.3"/>
				</g>
				<g id="Group_569" transform="translate(14.137 351.709)">
					<line id="Line_25" class="st1" x1="0" y1="0" x2="110.3" y2="34.6"/>
				</g>
				<path id="Ellipse_182" class="st3" d="M55,94.1c24.8-5.3,51.2,19.7,58.8,55.7s-6.2,69.5-31.1,74.8S31.6,204.9,24,168.9
					S30.2,99.4,55,94.1z"/>
				<g class="st4">
					<path d="M41.1,449.7c0,1.1-0.2,2-0.7,2.9s-1.1,1.5-1.9,2s-1.7,0.7-2.7,0.7c-1.7,0-3-0.7-4-2s-1.4-3.2-1.4-5.7
						c0-1.9,0.3-3.6,0.8-5.1s1.4-2.6,2.4-3.4s2.2-1.2,3.6-1.2c1.2,0,2.1,0.2,2.8,0.5v1.8c-0.9-0.4-1.8-0.7-2.7-0.7
						c-1.5,0-2.7,0.7-3.6,2s-1.3,3.1-1.3,5.3l0,0c0.8-1.6,2.1-2.4,3.8-2.4c1.5,0,2.6,0.5,3.5,1.4S41.1,448.1,41.1,449.7z
						 M39.1,449.9c0-1.2-0.3-2.1-0.9-2.8s-1.4-1-2.4-1c-0.9,0-1.7,0.3-2.4,1s-1,1.5-1,2.4c0,1.2,0.3,2.2,1,3s1.4,1.2,2.4,1.2
						s1.7-0.3,2.3-1S39.1,451,39.1,449.9z"/>
					<path d="M46,453.9c0,0.4-0.1,0.7-0.4,0.9s-0.6,0.4-0.9,0.4c-0.4,0-0.7-0.1-0.9-0.4s-0.4-0.6-0.4-0.9c0-0.4,0.1-0.7,0.4-0.9
						s0.6-0.4,0.9-0.4c0.4,0,0.7,0.1,0.9,0.4S46,453.6,46,453.9z"/>
					<path d="M58.6,449.9c0,1.6-0.5,2.9-1.6,3.9s-2.5,1.5-4.3,1.5c-1.6,0-2.7-0.2-3.5-0.7v-2c1.1,0.7,2.3,1.1,3.5,1.1s2.1-0.3,2.9-1
						s1.1-1.6,1.1-2.7s-0.4-2-1.1-2.6s-1.8-0.9-3.2-0.9c-1.1,0-2.1,0-2.8,0.1l0.6-8.4H58v1.7h-6.1l-0.3,4.9l1.5-0.1
						c1.8,0,3.1,0.4,4.1,1.3S58.6,448.3,58.6,449.9z"/>
					<path d="M70.2,454.4c-0.9,0.6-2,0.8-3.3,0.8c-1.1,0-2.1-0.3-2.9-0.8s-1.5-1.2-2-2.1s-0.7-2-0.7-3.1c0-2,0.6-3.6,1.7-4.8
						c1.1-1.2,2.7-1.8,4.5-1.8c1,0,2,0.2,2.8,0.6v2c-0.9-0.6-1.9-0.9-2.9-0.9c-1.2,0-2.3,0.4-3,1.3s-1.2,2-1.2,3.4s0.4,2.5,1.1,3.3
						c0.7,0.8,1.7,1.2,3,1.2c1,0,2-0.3,3-1L70.2,454.4L70.2,454.4z"/>
					<path d="M90.2,455h-1.9v-6.9c0-1.3-0.2-2.3-0.6-2.9s-1.1-0.9-2.1-0.9c-0.8,0-1.5,0.4-2.1,1.1s-0.9,1.6-0.9,2.7v6.8h-1.9v-7.1
						c0-2.4-0.9-3.5-2.7-3.5c-0.8,0-1.5,0.4-2.1,1.1s-0.8,1.6-0.8,2.7v6.8h-1.9v-12h1.9v1.9l0,0c0.9-1.5,2.1-2.2,3.7-2.2
						c0.8,0,1.5,0.2,2.1,0.7s1.1,1.1,1.3,1.8c0.9-1.7,2.2-2.5,4-2.5c2.6,0,4,1.6,4,4.9V455z"/>
					<path d="M108.2,443l-4,6.1l4,5.9H106l-2.4-3.9l-0.5-0.9l0,0l-3,4.8h-2.2l4.1-5.9l-3.9-6.1h2.2c1.7,3,2.6,4.6,2.8,5l0,0l3-5
						H108.2z"/>
					<path d="M118.9,455v-14.5c-0.3,0.3-0.9,0.7-1.7,1.1s-1.5,0.7-2.2,0.9v-1.9c0.8-0.2,1.8-0.6,2.7-1.1s1.8-1,2.4-1.6h0.7V455
						H118.9z"/>
					<path d="M134.8,449.9c0,1.6-0.5,2.9-1.6,3.9s-2.5,1.5-4.3,1.5c-1.6,0-2.7-0.2-3.5-0.7v-2c1.1,0.7,2.3,1.1,3.5,1.1
						s2.1-0.3,2.9-1s1.1-1.6,1.1-2.7s-0.4-2-1.1-2.6s-1.8-0.9-3.2-0.9c-1.1,0-2.1,0-2.8,0.1l0.6-8.4h7.8v1.7h-6.1l-0.3,4.9l1.5-0.1
						c1.8,0,3.1,0.4,4.1,1.3S134.8,448.3,134.8,449.9z"/>
					<path d="M140.3,453.9c0,0.4-0.1,0.7-0.4,0.9s-0.6,0.4-0.9,0.4c-0.4,0-0.7-0.1-0.9-0.4s-0.4-0.6-0.4-0.9c0-0.4,0.1-0.7,0.4-0.9
						s0.6-0.4,0.9-0.4c0.4,0,0.7,0.1,0.9,0.4S140.3,453.6,140.3,453.9z"/>
					<path d="M146.4,455v-14.5c-0.3,0.3-0.9,0.7-1.7,1.1s-1.5,0.7-2.2,0.9v-1.9c0.8-0.2,1.8-0.6,2.7-1.1s1.8-1,2.4-1.6h0.7V455
						H146.4z"/>
					<path d="M160.9,454.4c-0.9,0.6-2,0.8-3.3,0.8c-1.1,0-2.1-0.3-2.9-0.8s-1.5-1.2-2-2.1s-0.7-2-0.7-3.1c0-2,0.6-3.6,1.7-4.8
						s2.7-1.8,4.5-1.8c1,0,2,0.2,2.8,0.6v2c-0.9-0.6-1.9-0.9-2.9-0.9c-1.2,0-2.3,0.4-3,1.3s-1.2,2-1.2,3.4s0.4,2.5,1.1,3.3
						s1.7,1.2,3,1.2c1,0,2-0.3,3-1v1.9H160.9z"/>
					<path d="M180.9,455H179v-6.9c0-1.3-0.2-2.3-0.6-2.9s-1.1-0.9-2.1-0.9c-0.8,0-1.5,0.4-2.1,1.1s-0.9,1.6-0.9,2.7v6.8h-1.9v-7.1
						c0-2.4-0.9-3.5-2.7-3.5c-0.8,0-1.5,0.4-2.1,1.1s-0.8,1.6-0.8,2.7v6.8h-1.9v-12h1.9v1.9l0,0c0.9-1.5,2.1-2.2,3.7-2.2
						c0.8,0,1.5,0.2,2.1,0.7s1.1,1.1,1.3,1.8c0.9-1.7,2.2-2.5,4-2.5c2.6,0,4,1.6,4,4.9V455z"/>
				</g>
				<g class="st4">
					<path d="M70.7,477l-4,6.1l4,5.9h-2.2l-2.4-3.9l-0.5-0.9l0,0l-3,4.8h-2.2l4.1-5.9l-3.9-6.1h2.2c1.7,3,2.6,4.6,2.8,5l0,0l3-5
						H70.7z"/>
					<path d="M85.7,476.6c0-0.9-0.3-1.7-0.8-2.2s-1.3-0.8-2.3-0.8c-0.7,0-1.4,0.2-2.1,0.6s-1.3,0.9-1.9,1.5v-2.1
						c0.5-0.5,1.1-0.9,1.8-1.2s1.5-0.4,2.4-0.4c1.4,0,2.6,0.4,3.5,1.2s1.3,1.9,1.3,3.3c0,1.2-0.3,2.3-0.8,3.2s-1.5,1.9-2.9,2.9
						s-2.3,1.7-2.8,2.1s-0.8,0.8-1,1.2s-0.3,0.9-0.3,1.4h8.4v1.7H77.9v-0.8c0-0.9,0.1-1.6,0.4-2.3s0.6-1.2,1.2-1.8s1.6-1.4,3-2.5
						c1.2-0.8,2-1.6,2.5-2.4S85.7,477.6,85.7,476.6z"/>
					<path d="M101,473.3c-1.6,2.8-3,5.6-4.1,8.4s-1.7,5.2-2,7.3h-2.1c0.2-1.4,0.6-2.9,1.1-4.5s1.2-3.5,2.1-5.4s1.8-3.6,2.7-5.2h-8.4
						v-1.7H101V473.3z"/>
					<path d="M105.8,487.9c0,0.4-0.1,0.7-0.4,0.9s-0.6,0.4-0.9,0.4c-0.4,0-0.7-0.1-0.9-0.4s-0.4-0.6-0.4-0.9c0-0.4,0.1-0.7,0.4-0.9
						s0.6-0.4,0.9-0.4c0.4,0,0.7,0.1,0.9,0.4S105.8,487.6,105.8,487.9z"/>
					<path d="M118.5,483.9c0,1.6-0.5,2.9-1.6,3.9s-2.5,1.5-4.3,1.5c-1.6,0-2.7-0.2-3.5-0.7v-2c1.1,0.7,2.3,1.1,3.5,1.1
						s2.1-0.3,2.9-1s1.1-1.6,1.1-2.7s-0.4-2-1.1-2.6s-1.8-0.9-3.2-0.9c-1.1,0-2.1,0-2.8,0.1l0.6-8.4h7.8v1.7h-6.1l-0.3,4.9l1.5-0.1
						c1.8,0,3.1,0.4,4.1,1.3S118.5,482.3,118.5,483.9z"/>
					<path d="M130.1,488.4c-0.9,0.6-2,0.8-3.3,0.8c-1.1,0-2.1-0.3-2.9-0.8s-1.5-1.2-2-2.1s-0.7-2-0.7-3.1c0-2,0.6-3.6,1.7-4.8
						s2.7-1.8,4.5-1.8c1,0,2,0.2,2.8,0.6v2c-0.9-0.6-1.9-0.9-2.9-0.9c-1.2,0-2.3,0.4-3,1.3s-1.2,2-1.2,3.4s0.4,2.5,1.1,3.3
						s1.7,1.2,3,1.2c1,0,2-0.3,3-1L130.1,488.4L130.1,488.4z"/>
					<path d="M150,489h-1.9v-6.9c0-1.3-0.2-2.3-0.6-2.9s-1.1-0.9-2.1-0.9c-0.8,0-1.5,0.4-2.1,1.1s-0.9,1.6-0.9,2.7v6.8h-1.9v-7.1
						c0-2.4-0.9-3.5-2.7-3.5c-0.8,0-1.5,0.4-2.1,1.1s-0.8,1.6-0.8,2.7v6.8H133v-12h1.9v1.9l0,0c0.9-1.5,2.1-2.2,3.7-2.2
						c0.8,0,1.5,0.2,2.1,0.7s1.1,1.1,1.3,1.8c0.9-1.7,2.2-2.5,4-2.5c2.6,0,4,1.6,4,4.9V489z"/>
				</g>
				<g class="st4">
					<path d="M79.4,537.2v11.1H82v1.8h-2.6v3.9h-1.9v-3.9h-7.9v-1.7c1.7-1.9,3.2-3.8,4.6-5.8s2.4-3.8,3.2-5.4L79.4,537.2L79.4,537.2
						z M71.7,548.3h5.7v-8.2c-1.5,2.6-3,4.8-4.5,6.7L71.7,548.3z"/>
					<path d="M86.4,552.9c0,0.4-0.1,0.7-0.4,0.9s-0.6,0.4-0.9,0.4c-0.4,0-0.7-0.1-0.9-0.4s-0.4-0.6-0.4-0.9c0-0.4,0.1-0.7,0.4-0.9
						s0.6-0.4,0.9-0.4c0.4,0,0.7,0.1,0.9,0.4S86.4,552.6,86.4,552.9z"/>
					<path d="M96.7,541.6c0-0.9-0.3-1.7-0.8-2.2s-1.3-0.8-2.3-0.8c-0.7,0-1.4,0.2-2.1,0.6s-1.3,0.9-1.9,1.5v-2.1
						c0.5-0.5,1.1-0.9,1.8-1.2s1.5-0.4,2.4-0.4c1.4,0,2.6,0.4,3.5,1.2s1.3,1.9,1.3,3.3c0,1.2-0.3,2.3-0.8,3.2s-1.5,1.9-2.9,2.9
						s-2.3,1.7-2.8,2.1s-0.8,0.8-1,1.2s-0.3,0.9-0.3,1.4h8.4v1.7H88.9v-0.8c0-0.9,0.1-1.6,0.4-2.3s0.6-1.2,1.2-1.8s1.6-1.4,3-2.5
						c1.2-0.8,2-1.6,2.5-2.4S96.7,542.6,96.7,541.6z"/>
					<path d="M111.9,548.9c0,1.6-0.5,2.9-1.6,3.9s-2.5,1.5-4.3,1.5c-1.6,0-2.7-0.2-3.5-0.7v-2c1.1,0.7,2.3,1.1,3.5,1.1
						s2.1-0.3,2.9-1s1.1-1.6,1.1-2.7c0-1.1-0.4-2-1.1-2.6s-1.8-0.9-3.2-0.9c-1.1,0-2.1,0-2.8,0.1l0.6-8.4h7.8v1.7h-6.1l-0.3,4.9
						l1.5-0.1c1.8,0,3.1,0.4,4.1,1.3S111.9,547.3,111.9,548.9z"/>
					<path d="M117.4,554h-1.9v-17.8h1.9V554z"/>
					<path d="M132.3,547.6c0,2-0.5,3.6-1.5,4.8s-2.3,1.8-4,1.8c-1.6,0-2.8-0.7-3.6-2l0,0v1.7h-1.9v-17.8h1.9v7.9l0,0
						c0.9-1.6,2.3-2.4,4.1-2.4c1.5,0,2.7,0.5,3.6,1.6S132.3,545.8,132.3,547.6z M130.4,547.6c0-1.3-0.3-2.3-0.9-3.1
						s-1.4-1.2-2.5-1.2c-1.1,0-2,0.4-2.7,1.1s-1,1.7-1,2.9v1.7c0,1,0.3,1.9,1,2.5s1.5,1,2.4,1c1.2,0,2.1-0.4,2.7-1.3
						S130.4,549.2,130.4,547.6z"/>
					<path d="M141.8,550.8c0,1-0.4,1.9-1.2,2.5s-1.9,1-3.2,1c-1.1,0-2.1-0.2-3-0.7v-2.1c0.9,0.8,2,1.1,3.1,1.1
						c1.5,0,2.3-0.6,2.3-1.7c0-0.5-0.1-0.8-0.4-1.1s-1-0.7-2-1.2c-1.1-0.5-1.8-0.9-2.2-1.5s-0.7-1.2-0.7-2.1c0-1,0.4-1.8,1.2-2.5
						s1.8-1,3-1c0.9,0,1.8,0.2,2.6,0.6v1.9c-0.8-0.6-1.7-0.9-2.7-0.9c-0.6,0-1.1,0.2-1.5,0.5s-0.6,0.7-0.6,1.2s0.1,0.9,0.4,1.2
						s0.9,0.6,1.8,1c1.1,0.5,1.9,1,2.4,1.5S141.8,550,141.8,550.8z"/>
				</g>
				<g class="st4">
					<path d="M18.7,398v-14.5c-0.3,0.3-0.9,0.7-1.7,1.1s-1.5,0.7-2.2,0.9v-1.9c0.8-0.2,1.8-0.6,2.7-1.1s1.8-1,2.4-1.6h0.7V398H18.7z
						"/>
					<path d="M34.6,392.9c0,1.6-0.5,2.9-1.6,3.9s-2.5,1.5-4.3,1.5c-1.6,0-2.7-0.2-3.5-0.7v-2c1.1,0.7,2.3,1.1,3.5,1.1s2.1-0.3,2.9-1
						c0.8-0.7,1.1-1.6,1.1-2.7s-0.4-2-1.1-2.6s-1.8-0.9-3.2-0.9c-1.1,0-2.1,0-2.8,0.1l0.6-8.4H34v1.7h-6.1l-0.3,4.9l1.5-0.1
						c1.8,0,3.1,0.4,4.1,1.3S34.6,391.3,34.6,392.9z"/>
					<path d="M40.1,396.9c0,0.4-0.1,0.7-0.4,0.9s-0.6,0.4-0.9,0.4c-0.4,0-0.7-0.1-0.9-0.4s-0.4-0.6-0.4-0.9c0-0.4,0.1-0.7,0.4-0.9
						s0.6-0.4,0.9-0.4c0.4,0,0.7,0.1,0.9,0.4S40.1,396.6,40.1,396.9z"/>
					<path d="M46.2,398v-14.5c-0.3,0.3-0.9,0.7-1.7,1.1s-1.5,0.7-2.2,0.9v-1.9c0.8-0.2,1.8-0.6,2.7-1.1s1.8-1,2.4-1.6h0.7V398H46.2z
						"/>
					<path d="M60.7,397.4c-0.9,0.6-2,0.8-3.3,0.8c-1.1,0-2.1-0.3-2.9-0.8s-1.5-1.2-2-2.1s-0.7-2-0.7-3.1c0-2,0.6-3.6,1.7-4.8
						s2.7-1.8,4.5-1.8c1,0,2,0.2,2.8,0.6v2c-0.9-0.6-1.9-0.9-2.9-0.9c-1.2,0-2.3,0.4-3,1.3s-1.2,2-1.2,3.4s0.4,2.5,1.1,3.3
						s1.7,1.2,3,1.2c1,0,2-0.3,3-1L60.7,397.4L60.7,397.4z"/>
					<path d="M80.7,398h-1.9v-6.9c0-1.3-0.2-2.3-0.6-2.9s-1.1-0.9-2.1-0.9c-0.8,0-1.5,0.4-2.1,1.1s-0.9,1.6-0.9,2.7v6.8h-1.9v-7.1
						c0-2.4-0.9-3.5-2.7-3.5c-0.8,0-1.5,0.4-2.1,1.1s-0.8,1.6-0.8,2.7v6.8h-1.9v-12h1.9v1.9l0,0c0.9-1.5,2.1-2.2,3.7-2.2
						c0.8,0,1.5,0.2,2.1,0.7s1.1,1.1,1.3,1.8c0.9-1.7,2.2-2.5,4-2.5c2.6,0,4,1.6,4,4.9V398z"/>
				</g>
				<g class="st4">
					<path d="M25.8,16.7c0,1.1-0.2,2-0.7,2.9s-1.1,1.5-1.9,2s-1.7,0.7-2.7,0.7c-1.7,0-3-0.7-4-2s-1.4-3.2-1.4-5.7
						c0-1.9,0.3-3.6,0.8-5.1c0.5-1.5,1.4-2.6,2.4-3.4s2.2-1.2,3.6-1.2c1.2,0,2.1,0.2,2.8,0.5v1.8c-0.9-0.4-1.8-0.7-2.7-0.7
						c-1.5,0-2.7,0.7-3.6,2s-1.3,3.1-1.3,5.3l0,0c0.8-1.6,2.1-2.4,3.8-2.4c1.5,0,2.6,0.5,3.5,1.4S25.8,15.1,25.8,16.7z M23.9,16.9
						c0-1.2-0.3-2.1-0.9-2.8s-1.4-1-2.4-1c-0.9,0-1.7,0.3-2.4,1s-1,1.5-1,2.4c0,1.2,0.3,2.2,1,3s1.4,1.2,2.4,1.2s1.7-0.3,2.3-1
						S23.9,18,23.9,16.9z"/>
					<path d="M30.7,20.9c0,0.4-0.1,0.7-0.4,0.9s-0.6,0.4-0.9,0.4c-0.4,0-0.7-0.1-0.9-0.4s-0.4-0.6-0.4-0.9c0-0.4,0.1-0.7,0.4-0.9
						s0.6-0.4,0.9-0.4c0.4,0,0.7,0.1,0.9,0.4S30.7,20.6,30.7,20.9z"/>
					<path d="M43.3,16.9c0,1.6-0.5,2.9-1.6,3.9s-2.5,1.5-4.3,1.5c-1.6,0-2.7-0.2-3.5-0.7v-2c1.1,0.7,2.3,1.1,3.5,1.1s2.1-0.3,2.9-1
						s1.1-1.6,1.1-2.7s-0.4-2-1.1-2.6s-1.8-0.9-3.2-0.9c-1.1,0-2.1,0-2.8,0.1l0.6-8.4h7.8v1.7h-6.1l-0.3,4.9l1.5-0.1
						c1.8,0,3.1,0.4,4.1,1.3S43.3,15.3,43.3,16.9z"/>
					<path d="M55,21.4c-0.9,0.6-2,0.8-3.3,0.8c-1.1,0-2.1-0.3-2.9-0.8s-1.5-1.2-2-2.1s-0.7-2-0.7-3.1c0-2,0.6-3.6,1.7-4.8
						s2.7-1.8,4.5-1.8c1,0,2,0.2,2.8,0.6v2c-0.9-0.6-1.9-0.9-2.9-0.9c-1.2,0-2.3,0.4-3,1.3S48,14.6,48,16s0.4,2.5,1.1,3.3
						s1.7,1.2,3,1.2c1,0,2-0.3,3-1L55,21.4L55,21.4z"/>
					<path d="M74.9,22H73v-6.9c0-1.3-0.2-2.3-0.6-2.9s-1.1-0.9-2.1-0.9c-0.8,0-1.5,0.4-2.1,1.1s-0.9,1.6-0.9,2.7V22h-1.9v-7.1
						c0-2.4-0.9-3.5-2.7-3.5c-0.8,0-1.5,0.4-2.1,1.1s-0.8,1.6-0.8,2.7V22h-1.9V10h1.9v1.9l0,0c0.9-1.5,2.1-2.2,3.7-2.2
						c0.8,0,1.5,0.2,2.1,0.7s1.1,1.1,1.3,1.8c0.9-1.7,2.2-2.5,4-2.5c2.6,0,4,1.6,4,4.9C74.9,14.6,74.9,22,74.9,22z"/>
				</g>
				<g class="st4">
					<path d="M215.4,185.6c0-0.9-0.3-1.7-0.8-2.2s-1.3-0.8-2.3-0.8c-0.7,0-1.4,0.2-2.1,0.6s-1.3,0.9-1.9,1.5v-2.1
						c0.5-0.5,1.1-0.9,1.8-1.2s1.5-0.4,2.4-0.4c1.4,0,2.6,0.4,3.5,1.2s1.3,1.9,1.3,3.3c0,1.2-0.3,2.3-0.8,3.2s-1.5,1.9-2.9,2.9
						s-2.3,1.7-2.8,2.1s-0.8,0.8-1,1.2s-0.3,0.9-0.3,1.4h8.4v1.7h-10.4v-0.8c0-0.9,0.1-1.6,0.4-2.3s0.6-1.2,1.2-1.8s1.6-1.4,3-2.5
						c1.2-0.8,2-1.6,2.5-2.4S215.4,186.6,215.4,185.6z"/>
					<path d="M230.7,182.3c-1.6,2.8-3,5.6-4.1,8.4s-1.7,5.2-2,7.3h-2.1c0.2-1.4,0.6-2.9,1.1-4.5s1.2-3.5,2.1-5.4s1.8-3.6,2.7-5.2
						H220v-1.7h10.7V182.3z"/>
					<path d="M235.5,196.9c0,0.4-0.1,0.7-0.4,0.9s-0.6,0.4-0.9,0.4c-0.4,0-0.7-0.1-0.9-0.4s-0.4-0.6-0.4-0.9c0-0.4,0.1-0.7,0.4-0.9
						s0.6-0.4,0.9-0.4c0.4,0,0.7,0.1,0.9,0.4S235.5,196.6,235.5,196.9z"/>
					<path d="M248.2,192.9c0,1.6-0.5,2.9-1.6,3.9s-2.5,1.5-4.3,1.5c-1.6,0-2.7-0.2-3.5-0.7v-2c1.1,0.7,2.3,1.1,3.5,1.1
						s2.1-0.3,2.9-1s1.1-1.6,1.1-2.7c0-1.1-0.4-2-1.1-2.6s-1.8-0.9-3.2-0.9c-1.1,0-2.1,0-2.8,0.1l0.6-8.4h7.8v1.7h-6.1l-0.3,4.9
						l1.5-0.1c1.8,0,3.1,0.4,4.1,1.3S248.2,191.3,248.2,192.9z"/>
					<path d="M259.8,197.4c-0.9,0.6-2,0.8-3.3,0.8c-1.1,0-2.1-0.3-2.9-0.8s-1.5-1.2-2-2.1s-0.7-2-0.7-3.1c0-2,0.6-3.6,1.7-4.8
						s2.7-1.8,4.5-1.8c1,0,2,0.2,2.8,0.6v2c-0.9-0.6-1.9-0.9-2.9-0.9c-1.2,0-2.3,0.4-3,1.3s-1.2,2-1.2,3.4s0.4,2.5,1.1,3.3
						s1.7,1.2,3,1.2c1,0,2-0.3,3-1v1.9L259.8,197.4L259.8,197.4z"/>
					<path d="M279.7,198h-1.9v-6.9c0-1.3-0.2-2.3-0.6-2.9s-1.1-0.9-2.1-0.9c-0.8,0-1.5,0.4-2.1,1.1s-0.9,1.6-0.9,2.7v6.8h-1.9v-7.1
						c0-2.4-0.9-3.5-2.7-3.5c-0.8,0-1.5,0.4-2.1,1.1s-0.8,1.6-0.8,2.7v6.8h-1.9v-12h1.9v1.9l0,0c0.9-1.5,2.1-2.2,3.7-2.2
						c0.8,0,1.5,0.2,2.1,0.7s1.1,1.1,1.3,1.8c0.9-1.7,2.2-2.5,4-2.5c2.6,0,4,1.6,4,4.9V198z"/>
				</g>
			</g>
		</g>
	</g>
</g>
</svg>
